<svg xmlns="http://www.w3.org/2000/svg" width="56.192" height="56.192" viewBox="0 0 56.192 56.192">
  <path id="Icon_awesome-user-circle" data-name="Icon awesome-user-circle" d="M28.1.562a28.1,28.1,0,1,0,28.1,28.1A28.091,28.091,0,0,0,28.1.562Zm0,10.876a9.97,9.97,0,1,1-9.97,9.97A9.97,9.97,0,0,1,28.1,11.438Zm0,38.972a21.71,21.71,0,0,1-16.6-7.726,12.631,12.631,0,0,1,11.159-6.775,2.772,2.772,0,0,1,.8.125,15,15,0,0,0,4.634.782,14.943,14.943,0,0,0,4.634-.782,2.772,2.772,0,0,1,.8-.125,12.631,12.631,0,0,1,11.159,6.775A21.709,21.709,0,0,1,28.1,50.41Z" transform="translate(0 -0.563)" fill="#f2f2f2"/>
</svg>
