<svg xmlns="http://www.w3.org/2000/svg" width="81.485" height="83.991" viewBox="0 0 81.485 83.991">
  <path id="Icon_awesome-upload" data-name="Icon awesome-upload" d="M47.109,63H34.377a3.871,3.871,0,0,1-3.82-3.938V31.494H16.6A3.289,3.289,0,0,1,14.355,25.9L38.562.928a3.018,3.018,0,0,1,4.345,0L67.13,25.9a3.289,3.289,0,0,1-2.244,5.595H50.928V59.057A3.871,3.871,0,0,1,47.109,63Zm34.377-1.313V80.058A3.871,3.871,0,0,1,77.666,84H3.82A3.871,3.871,0,0,1,0,80.058V61.683a3.871,3.871,0,0,1,3.82-3.938H25.464v1.313a9.059,9.059,0,0,0,8.912,9.188H47.109a9.059,9.059,0,0,0,8.912-9.188V57.745H77.666A3.871,3.871,0,0,1,81.485,61.683ZM61.751,76.121A3.184,3.184,0,1,0,58.568,79.4,3.243,3.243,0,0,0,61.751,76.121Zm10.186,0A3.184,3.184,0,1,0,68.753,79.4,3.243,3.243,0,0,0,71.936,76.121Z" transform="translate(0 -0.005)" fill="#f2f2f2"/>
</svg>
