<svg xmlns="http://www.w3.org/2000/svg" width="29.405" height="24.503" viewBox="0 0 29.405 24.503">
  <g id="Grupo_16" data-name="Grupo 16" transform="translate(29.405) rotate(90)">
    <path id="Trazado_78" data-name="Trazado 78" d="M19.594,12.244l.73-.73-.73.73ZM7.372,0,4.922,2.45l-.014-.014L2.454,4.89h0L0,7.344,2.454,9.8l.509-.509L2.454,9.8l2.454,2.454.011-.011L7.358,14.68l.583-.583-.583.583,2.454,2.454,2.439-2.439,2.439,2.439,2.454-2.454-2.454-2.455-2.439,2.44-2.439-2.44L7.358,9.771l-.011.011L4.908,7.344,7.356,4.9,9.787,7.327l2.446-2.446,2.446,2.447L12.237,9.771l2.454,2.454,2.442-2.442.007.007h0l2.454,2.454L17.14,14.7l2.454,2.454-.018.017h0l-2.453,2.453L14.691,17.19l-2.454,2.454,2.433,2.433-2.454,2.454,2.454,2.455,2.454-2.454,2.454-2.454h0l2.453-2.453,2.454-2.454-2.454-2.454.017-.017h0L24.5,12.244,22.049,9.79,19.6,7.336h0L17.141,4.882h0L14.687,2.427,12.241,4.873,9.824,2.456l0,0Z" fill="#fff"/>
    <path id="Trazado_79" data-name="Trazado 79" d="M4.9,2.454l0,0L2.454,4.908l.229.229-.229-.229L0,7.363,2.454,9.817h0l2.454,2.454L7.323,9.855h0L4.909,12.271l2.454,2.455,2.455-2.455L9.8,12.258l2.415-2.415L9.765,7.388,7.349,9.8,4.908,7.363h0L7.363,4.908l0,0L9.812,2.454,7.358,0Z" transform="translate(0 14.68)" fill="#fff"/>
  </g>
</svg>
