<svg id="Grupo_13" data-name="Grupo 13" xmlns="http://www.w3.org/2000/svg" xmlns:xlink="http://www.w3.org/1999/xlink" width="185.041" height="67.593" viewBox="0 0 185.041 67.593">
  <defs>
    <clipPath id="clip-path">
      <rect id="Rectángulo_7" data-name="Rectángulo 7" width="185.041" height="67.593" fill="none" stroke="#fff" stroke-width="2"/>
    </clipPath>
  </defs>
  <g id="Grupo_12" data-name="Grupo 12" clip-path="url(#clip-path)">
    <path id="Trazado_136" data-name="Trazado 136" d="M441.152,14.841H419.9v63.3h21.25c17.871,0,32.452-14.226,32.452-31.652S459.023,14.841,441.152,14.841Zm0,51.657h-9.425V26.488h9.425c11.381,0,20.627,8.98,20.627,20S452.532,66.5,441.152,66.5Z" transform="translate(-344.141 -12.163)" fill="none" stroke="#fff" stroke-miterlimit="10" stroke-width="2"/>
    <path id="Trazado_137" data-name="Trazado 137" d="M796.243,47.174a17.937,17.937,0,0,0-6.935-6.4c-3.468-2.045-8.446-3.112-12.181-3.823-.711-.178-1.423-.356-1.956-.445-4.09-.889-6.668-1.778-8.357-2.934a4.769,4.769,0,0,1-2.4-4.357c0-2.134,1.6-4.268,4.09-5.424a13.56,13.56,0,0,1,5.513-1.156c3.2,0,8.18,1.067,13.959,5.779l1.689,1.423,7.557-9.158-1.689-1.422a35.993,35.993,0,0,0-16.715-8A43.634,43.634,0,0,0,774.1,10.9a24.584,24.584,0,0,0-10.58,2.312,20.986,20.986,0,0,0-7.824,6.224,17.948,17.948,0,0,0-3.112,9.869,16.535,16.535,0,0,0,2.223,8.536,18.917,18.917,0,0,0,6.4,6.313c4.179,2.312,13.248,4.179,14.315,4.357a25.881,25.881,0,0,1,8.269,2.756c2.045,1.245,3.023,2.756,3.023,4.712a6.922,6.922,0,0,1-4.623,6.491,13.978,13.978,0,0,1-5.957,1.245,20.415,20.415,0,0,1-4-.445h-.089a29.115,29.115,0,0,1-13.07-6.846l-1.689-1.511L749.565,63.8l1.689,1.511a40.688,40.688,0,0,0,18.582,9.425,32.809,32.809,0,0,0,6.4.711,23.106,23.106,0,0,0,10.936-2.312,21.716,21.716,0,0,0,8.269-6.579,17.942,17.942,0,0,0,3.2-10.581A16.564,16.564,0,0,0,796.243,47.174Z" transform="translate(-614.324 -8.932)" fill="none" stroke="#fff" stroke-miterlimit="10" stroke-width="2"/>
    <path id="Trazado_138" data-name="Trazado 138" d="M37.075,4A33.075,33.075,0,1,0,70.238,37.164,33.145,33.145,0,0,0,37.075,4ZM19.237,48.584l1.313-1.313-1.313,1.313A21.4,21.4,0,0,1,19.483,25.3l1.067,1.067L19.483,25.3a21.4,21.4,0,0,0-.246,23.283Zm1.313-1.313,5.235-5.236,0,0,5.24-5.24-5.206-5.207-.024.024-5.24-5.241,5.24,5.241.024-.024,5.206,5.207-5.24,5.24,0,0Zm15.61,5.295-5,5q-.229-.067-.455-.139l-4.915-4.915h0l5.241-5.241-.005-.005,5.236-5.236-5.236,5.236.005.005L25.79,52.512h0L30.7,57.428q.227.072.455.139l5-5L41.4,57.807Zm15.714-5.22-5.195-5.195-5.24,5.241,5.195,5.2-5.24,5.24,5.24-5.24-5.195-5.2,5.24-5.241,5.195,5.195,5.237-5.238Zm5.274-5.274-.037.037.037-.037-5.24-5.24,5.24-5.24-5.24-5.24h0l-.015-.015-5.215,5.215-5.24-5.241,5.215-5.215L41.959,16.4q-.432-.1-.871-.188l-4.881,4.881-4.556-4.556q-.946.253-1.858.589l-4,4L31,26.333l.024-.024,5.241,5.241,5.209,5.209,5.208-5.209,5.241,5.241-5.241,5.24L41.47,36.822,36.261,42.03l5.209-5.208,5.208,5.208,5.241-5.24-5.241-5.241L41.47,36.758,36.261,31.55l-5.241-5.241L31,26.333,25.79,21.127l4-4q.91-.336,1.858-.589l4.556,4.556,4.881-4.881q.439.085.871.188l4.694,4.695-5.215,5.215,5.24,5.241,5.215-5.215.015.015h0l5.24,5.24-5.24,5.24Z" transform="translate(-3.278 -3.278)" fill="none" stroke="#fff" stroke-miterlimit="10" stroke-width="2"/>
  </g>
</svg>
