<svg xmlns="http://www.w3.org/2000/svg" xmlns:xlink="http://www.w3.org/1999/xlink" width="711.798" height="711.75" viewBox="0 0 711.798 711.75">
  <defs>
    <clipPath id="clip-path">
      <rect id="Rectángulo_10" data-name="Rectángulo 10" width="711.798" height="711.75" fill="none"/>
    </clipPath>
    <clipPath id="clip-path-2">
      <path id="Trazado_232" data-name="Trazado 232" d="M371.617,572.889,342.626,728.073a362.25,362.25,0,0,0,122.227,0L435.83,572.889a199.513,199.513,0,0,1-64.213,0m72.8-1.6,29.018,155.192a352.324,352.324,0,0,0,113.932-44.177l-48.459-78.279-34.617-55.917a195.323,195.323,0,0,1-59.873,23.181M220.077,682.305a352.389,352.389,0,0,0,113.958,44.177l25.036-133.989,3.96-21.2A195.6,195.6,0,0,1,303.158,548.1Zm291.644-138.8,83.072,134.2A355.645,355.645,0,0,0,685.1,595.348l-125.945-95.1a198.463,198.463,0,0,1-47.433,43.261M224.4,518.284l-102.05,77.063a356.638,356.638,0,0,0,90.31,82.354l21.119-34.115L295.73,543.5a197.717,197.717,0,0,1-47.411-43.283ZM62.532,479.019a353.513,353.513,0,0,0,54.547,109.359l93.579-70.662,32.4-24.463a196.419,196.419,0,0,1-28.666-57.442Zm501.887,14.26,125.95,95.1a353.32,353.32,0,0,0,54.547-109.359L593.089,435.811a196.681,196.681,0,0,1-28.67,57.468M47.827,377.387a357.634,357.634,0,0,0,12.322,93.231l24.384-6.938L212,427.41a199.2,199.2,0,0,1-6.361-50.023c0-4.723.163-9.388.48-13.925l-146.739-13.6L48.955,348.9c-.753,9.542-1.128,19.106-1.128,28.49M724.977,352,601.358,363.462c.317,4.538.476,9.2.476,13.925a199.169,199.169,0,0,1-6.357,50.023L747.3,470.618a357.564,357.564,0,0,0,12.326-93.231c0-9.392-.379-18.956-1.128-28.49ZM49.743,340.2l157.179,14.569a195.7,195.7,0,0,1,17.555-61.746L83.14,222.644A352.731,352.731,0,0,0,49.743,340.2m616.435-88.619L583,292.994a196.016,196.016,0,0,1,17.56,61.772L757.7,340.2a352.619,352.619,0,0,0-33.4-117.557ZM87.044,214.825l105.315,52.446L228.381,285.2a197,197,0,0,1,38.7-51.243L160.772,117.343a355.281,355.281,0,0,0-73.728,97.482M540.4,233.962a197.336,197.336,0,0,1,38.7,51.217l102.487-51.023,38.829-19.331A354.911,354.911,0,0,0,646.7,117.343ZM167.226,111.453l106.3,116.628a196.92,196.92,0,0,1,54.578-33.846l-1-2.577L271.078,47.051a353.415,353.415,0,0,0-103.852,64.4m321.755,57.979-9.608,24.8a196.9,196.9,0,0,1,54.574,33.846l106.3-116.623A353.754,353.754,0,0,0,536.4,47.051ZM279.224,43.887l57.023,147.2a197.113,197.113,0,0,1,63.111-11.758V21.517a354.037,354.037,0,0,0-120.134,22.37M408.089,179.326a197.3,197.3,0,0,1,63.138,11.754L526.414,48.645l1.846-4.758a354.177,354.177,0,0,0-120.17-22.37Z" transform="translate(-47.827 -21.517)" fill="none"/>
    </clipPath>
  </defs>
  <g id="Grupo_25" data-name="Grupo 25" transform="translate(-99.82 217.242)">
    <g id="Grupo_17" data-name="Grupo 17" transform="translate(99.82 -217.242)" opacity="0.09">
      <g id="Grupo_16" data-name="Grupo 16" clip-path="url(#clip-path)">
        <path id="Trazado_145" data-name="Trazado 145" d="M172.66,157.806V0A354.017,354.017,0,0,0,52.526,22.371l57.028,147.2a197.093,197.093,0,0,1,63.107-11.762" transform="translate(178.871 0.003)" fill="#fff"/>
        <path id="Trazado_146" data-name="Trazado 146" d="M187.983,152.984l-1-2.577L130.955,5.8A353.429,353.429,0,0,0,27.1,70.2L133.409,186.826a196.883,196.883,0,0,1,54.574-33.842" transform="translate(92.296 19.738)" fill="#fff"/>
        <path id="Trazado_147" data-name="Trazado 147" d="M188.936,138.375,82.635,21.752A355.164,355.164,0,0,0,8.9,119.238L114.221,171.68l36.018,17.934a197.178,197.178,0,0,1,38.7-51.239" transform="translate(30.315 74.074)" fill="#fff"/>
        <path id="Trazado_148" data-name="Trazado 148" d="M33.833,45.655A352.623,352.623,0,0,0,.436,163.212l157.179,14.564a195.529,195.529,0,0,1,17.555-61.741Z" transform="translate(1.485 155.472)" fill="#fff"/>
        <path id="Trazado_149" data-name="Trazado 149" d="M139.041,177.78l157.148-14.564a352.649,352.649,0,0,0-33.4-117.562L204.663,74.6l-83.182,41.411a195.9,195.9,0,0,1,17.56,61.772" transform="translate(413.688 155.469)" fill="#fff"/>
        <path id="Trazado_150" data-name="Trazado 150" d="M200.1,27.128l1.841-4.753A354.049,354.049,0,0,0,81.779,0V157.809a197.419,197.419,0,0,1,63.133,11.758Z" transform="translate(278.488)" fill="#fff"/>
        <path id="Trazado_151" data-name="Trazado 151" d="M150.509,189.584l102.482-51.019,38.829-19.331a354.9,354.9,0,0,0-73.7-97.482L111.812,138.372a197.243,197.243,0,0,1,38.7,51.212" transform="translate(380.762 74.077)" fill="#fff"/>
        <path id="Trazado_152" data-name="Trazado 152" d="M157.818,102.8c0-4.723.159-9.392.476-13.925L11.56,75.28,1.128,74.315C.379,83.857,0,93.417,0,102.8a357.788,357.788,0,0,0,12.322,93.226L36.71,189.1l127.469-36.269a199.019,199.019,0,0,1-6.361-50.023" transform="translate(0 253.07)" fill="#fff"/>
        <path id="Trazado_153" data-name="Trazado 153" d="M152.537,186.826l106.3-116.619A353.847,353.847,0,0,0,154.987,5.8L107.572,128.182l-9.613,24.8a196.906,196.906,0,0,1,54.578,33.842" transform="translate(333.587 19.738)" fill="#fff"/>
        <path id="Trazado_154" data-name="Trazado 154" d="M105.3,151.931l83.072,134.2a355.683,355.683,0,0,0,90.31-82.358l-125.95-95.1A198.376,198.376,0,0,1,105.3,151.931" transform="translate(358.593 370.062)" fill="#fff"/>
        <path id="Trazado_155" data-name="Trazado 155" d="M243.211,246.611a353.33,353.33,0,0,0,54.543-109.363l-151.818-43.2a196.875,196.875,0,0,1-28.67,57.464Z" transform="translate(399.334 320.255)" fill="#fff"/>
        <path id="Trazado_156" data-name="Trazado 156" d="M253.814,77.421,130.2,88.879c.317,4.533.476,9.2.476,13.925a199.193,199.193,0,0,1-6.357,50.023l151.822,43.2A357.5,357.5,0,0,0,288.463,102.8c0-9.392-.379-18.956-1.128-28.49Z" transform="translate(423.335 253.07)" fill="#fff"/>
        <path id="Trazado_157" data-name="Trazado 157" d="M90.025,142.72l29.023,155.188a352.289,352.289,0,0,0,113.927-44.173l-48.459-78.283L149.9,119.534A195.513,195.513,0,0,1,90.025,142.72" transform="translate(306.569 407.058)" fill="#fff"/>
        <path id="Trazado_158" data-name="Trazado 158" d="M122.182,119.532,39.1,253.742a352.551,352.551,0,0,0,113.958,44.177l25.036-133.989,3.96-21.2a195.506,195.506,0,0,1-59.873-23.194" transform="translate(133.153 407.051)" fill="#fff"/>
        <path id="Trazado_159" data-name="Trazado 159" d="M155.192,94.044,3.339,137.247A353.391,353.391,0,0,0,57.886,246.611l93.575-70.667,32.4-24.463a196.4,196.4,0,0,1-28.666-57.437" transform="translate(11.371 320.255)" fill="#fff"/>
        <path id="Trazado_160" data-name="Trazado 160" d="M142.884,108.664,118.963,126.73,16.917,203.789a356.64,356.64,0,0,0,90.306,82.358l21.119-34.115,61.953-100.081a197.825,197.825,0,0,1-47.411-43.287" transform="translate(57.609 370.041)" fill="#fff"/>
        <path id="Trazado_161" data-name="Trazado 161" d="M95.914,125.159l-29,155.188a362.481,362.481,0,0,0,122.227,0L160.127,125.159a199.51,199.51,0,0,1-64.213,0" transform="translate(227.881 426.213)" fill="#fff"/>
      </g>
    </g>
    <g id="Grupo_19" data-name="Grupo 19" transform="translate(99.82 -217.242)" opacity="0.12">
      <g id="Grupo_18" data-name="Grupo 18" transform="translate(0 0)" clip-path="url(#clip-path-2)">
        <path id="Trazado_162" data-name="Trazado 162" d="M300.952,132.506l9.353,9.348,9.5-9.5-9.5-9.5-.053.048-9.348-9.348-9.5,9.5,9.353,9.348-9.45,9.45v0l-9.5-9.5-.009.009-9.494-9.489-9.441-9.445,9.441-9.441-9.5-9.5-9.5,9.5,9.441,9.441-9.441,9.445-9.5,9.5.044.044-9.436,9.436-9.472-9.472,9.41-9.41-9.467-9.467,9.467-9.467,9.454,9.45,9.5-9.5-9.454-9.454.026-.026,9.5-9.5,9.5,9.5,9.5-9.5.066.07,1.784-1.784-1.784,1.784,9.493,9.494-9.414,9.414,9.5,9.5,9.419-9.414,9.5,9.5,9.5-9.5-9.5-9.5-9.5-9.5-9.494-9.494-9.5-9.5-9.5,9.5-.066-.066-9.5-9.5-9.5,9.5-9.5,9.5v0l-9.5,9.5v0l-9.5,9.5,9.467,9.467-9.353,9.353-.009-.009-9.5,9.5,9.489,9.485-.057.053,9.5,9.5,9.5,9.5,9.5-9.5-3.167-3.167,3.167,3.163,9.5-9.5-.044-.044,9.436-9.436,9.5,9.5.009-.009,9.494,9.489,2.969-2.965-2.969,2.969,9.5,9.5,9.5-9.5,9.5-9.5ZM253.382,85.012h0L251,82.637Zm9.423,47.362-2.11-2.11,2.11,2.11,1.78-1.78Z" transform="translate(490.76 130.019)" fill="#fff"/>
        <path id="Trazado_163" data-name="Trazado 163" d="M278.36,105.694h0l9.5-9.5-9.5-9.5-9.5-9.5,0,0-9.5-9.5h0l-9.5-9.5L240.4,67.667l-9.353-9.357.009-.009-9.5-9.5-9.485,9.485-.053-.053-9.494,9.494h0l-9.5,9.5,9.5,9.5h0l9.5,9.5.044-.044,9.436,9.436,9.5-9.5-9.5-9.5-.044.044-9.436-9.441,9.472-9.472,9.41,9.41,9.467-9.467,9.472,9.472-9.454,9.454,9.5,9.5,9.454-9.454.026.026v0l9.5,9.5-9.5,9.5,9.5,9.5-.07.066-9.494,9.494-9.414-9.419-9.5,9.5,9.414,9.414-9.5,9.5,9.5,9.5,9.5-9.5,9.5-9.5,9.494-9.494,9.5-9.5-9.5-9.5ZM249.914,77.152h0l6.661-6.661ZM268.862,96.2h0l2.375-2.374Z" transform="translate(446.606 71.402)" fill="#fff"/>
        <path id="Trazado_164" data-name="Trazado 164" d="M240.315,107.14l-9.5-9.5-9.353,9.348-9.45-9.445,0,0,9.5-9.5-.009-.009L231,78.544l9.445-9.445,9.441,9.445,9.5-9.5-9.5-9.5-9.441,9.441L231,59.544l-9.5,9.5,2.238,2.238L221.5,69.042l-9.5,9.5.009.009-9.489,9.489,1.053,1.057-1.053-1.057-9.5,9.5,9.5,9.5v0l9.5,9.5,9.353-9.353v0l-9.348,9.348,9.5,9.5,9.5-9.5-.053-.053Z" transform="translate(446.607 107.979)" fill="#fff"/>
        <path id="Trazado_165" data-name="Trazado 165" d="M310.223,73.932l.009.009,9.5-9.5-9.485-9.485.053-.057L300.8,45.407l-9.5-9.5-9.5,9.5-9.5,9.5.044.044-9.441,9.436-9.5-9.5-.009.009-9.489-9.489-9.5-9.5-9.5,9.494-9.5,9.5,9.348,9.353L215.415,54.9l-9.5,9.5,9.5,9.5.048-.053,9.353,9.348,9.5-9.5-9.353-9.353,9.45-9.445,9.5,9.5.009-.009,9.489,9.489,9.441,9.441-9.441,9.441,9.5,9.5,9.5-9.5-9.445-9.441,9.445-9.441,9.5-9.5-.044-.044,9.441-9.436,9.472,9.476-9.41,9.405,9.467,9.467-9.472,9.472-9.454-9.454-9.5,9.5,9.454,9.454-.026.026h0l-9.5,9.5-9.5-9.5-9.5,9.5-.066-.066-2.233,2.234,2.233-2.234-9.494-9.494,9.419-9.419-9.5-9.5-9.414,9.414-9.5-9.5-9.5,9.5,9.5,9.5,9.5,9.5,9.494,9.494,9.5,9.5,9.5-9.5.07.066h0l9.5,9.5,9.5-9.5,9.5-9.494h0l9.5-9.5,9.5-9.5-9.467-9.463ZM262.91,64.385,261.8,65.5l1.115-1.119.634.634Zm9.427,47.362h0l1.78,1.784ZM291.382,92.8h0l.511.511Z" transform="translate(490.515 27.493)" fill="#fff"/>
        <path id="Trazado_166" data-name="Trazado 166" d="M266.483,97.976l9.353,9.348,9.5-9.5-9.5-9.5-.053.048-9.348-9.348-9.5,9.5,9.353,9.348-9.45,9.45v0l-9.5-9.5-.009.009-9.494-9.489L228.394,78.9l9.441-9.441-9.5-9.5-9.5,9.5,9.441,9.441-9.441,9.445-9.5,9.5.044.044-9.436,9.436-9.472-9.472,9.41-9.41-9.467-9.467,9.467-9.467,9.454,9.45,9.5-9.5-9.454-9.454.026-.026,9.5-9.5,9.5,9.5,9.5-9.5.066.07,1.784-1.784-1.784,1.784,9.494,9.494-9.414,9.414,9.5,9.5,9.419-9.414,9.5,9.5,9.5-9.5-9.5-9.5-9.5-9.5-9.494-9.494-9.5-9.5-9.5,9.5-.066-.066-9.5-9.5-9.5,9.5-9.5,9.5v0l-9.5,9.5v0l-9.5,9.5,9.467,9.467L181.027,88.3l-.009-.009-9.5,9.5,9.489,9.485-.057.053,9.5,9.5h0l9.5,9.5,9.5-9.5-3.167-3.167,3.167,3.163,9.5-9.5-.044-.044,9.436-9.436,9.5,9.5.009-.009,9.494,9.489,2.969-2.965-2.969,2.969,9.5,9.5,9.5-9.5,9.5-9.5ZM218.913,50.482h0l-2.379-2.375Zm9.423,47.362-2.11-2.11,2.11,2.11,1.78-1.78Z" transform="translate(373.38 12.431)" fill="#fff"/>
        <path id="Trazado_167" data-name="Trazado 167" d="M243.891,71.164h0l9.5-9.5-9.5-9.5-9.5-9.5,0,0-9.5-9.5h0l-9.5-9.5-9.467,9.467-9.353-9.357.009-.009-9.5-9.5L177.6,23.758l-.053-.053L168.052,33.2h0l-9.5,9.5,9.5,9.5h0l9.5,9.5.044-.044,9.436,9.436,9.5-9.5-9.5-9.5-.044.044L177.55,42.7l9.472-9.472,9.41,9.41,9.467-9.467,9.472,9.472-9.454,9.454,9.5,9.5,9.454-9.454.026.026v0l9.5,9.5-9.5,9.5,9.5,9.5-.071.066-9.494,9.494-9.414-9.419-9.5,9.5,9.414,9.414-9.5,9.5,9.5,9.5,9.5-9.5,9.5-9.5,9.494-9.494,9.5-9.5-9.5-9.5ZM215.445,42.622h0l6.661-6.661Zm18.948,19.044h0l2.374-2.374Z" transform="translate(329.226 -46.186)" fill="#fff"/>
        <path id="Trazado_168" data-name="Trazado 168" d="M205.847,72.61l-9.5-9.5L187,72.46l-9.445-9.445v0l9.5-9.5-.009-.009,9.489-9.489,9.445-9.445,9.441,9.445,9.5-9.5-9.5-9.5-9.441,9.441-9.445-9.441-9.5,9.5,2.238,2.238-2.238-2.238-9.5,9.5.009.009-9.489,9.489,1.053,1.057-1.053-1.057-9.5,9.5,9.5,9.5v0l9.5,9.5,9.353-9.353v0l-9.348,9.348,9.5,9.5,9.5-9.5-.053-.053Z" transform="translate(329.228 -9.608)" fill="#fff"/>
        <path id="Trazado_169" data-name="Trazado 169" d="M275.755,39.4l.009.009,9.5-9.5-9.485-9.485.053-.057-9.493-9.494-9.5-9.5-9.5,9.5-9.5,9.5.044.044-9.441,9.436-9.5-9.5-.009.009-9.489-9.489-9.5-9.5-9.5,9.494-9.5,9.5,9.348,9.353-9.348-9.348-9.5,9.5,9.5,9.5.048-.053,9.353,9.348,9.5-9.5-9.353-9.353,9.45-9.445,9.5,9.5.009-.009,9.489,9.489,9.441,9.441-9.441,9.441,9.5,9.5,9.5-9.5L228.5,48.8l9.445-9.441,9.5-9.5-.044-.044,9.436-9.436,9.476,9.476-9.41,9.405,9.467,9.467L256.9,58.2l-9.454-9.454-9.5,9.5,9.454,9.454-.027.026h0l-9.5,9.5-9.5-9.5-9.5,9.5-.066-.066-2.234,2.234,2.234-2.234-9.494-9.494,9.419-9.419-9.5-9.5-9.419,9.414-9.5-9.5-9.5,9.5,9.5,9.5,9.5,9.5h0l9.494,9.494,9.5,9.5,9.5-9.5.07.066h0l9.5,9.5,9.5-9.5,9.5-9.494h0l9.5-9.5,9.5-9.5L266.4,48.759Zm-47.314-9.546-1.115,1.119,1.115-1.119.634.634Zm9.428,47.362h0L239.649,79ZM256.914,58.27h0l.511.511Z" transform="translate(373.138 -90.094)" fill="#fff"/>
        <path id="Trazado_170" data-name="Trazado 170" d="M272.279,91.959l1.78-1.784-9.5-9.5-.044.044L255.08,71.28l-2.234,2.238,2.234-2.234-8.943-8.943,8.943,8.939,9.5-9.5-.009-.009,9.489-9.489-1.185-1.189,1.189,1.189,9.5-9.5-9.5-9.5-9.5-9.5-9.353,9.348,9.348-9.348-9.5-9.5-9.5,9.5.053.053-9.348,9.348,9.5,9.5,9.353-9.353,9.449,9.45h0l-9.5,9.5.009.009-9.489,9.489-9.445,9.441L226.7,61.782l-9.5,9.5,9.5,9.5,9.441-9.441,9.445,9.441,9.5,9.5.044-.044,9.436,9.441-9.472,9.472-9.41-9.41-9.467,9.467-9.467-9.472,9.449-9.454-9.5-9.5-9.454,9.454-.026-.026v0l-9.5-9.5,9.5-9.5-9.5-9.5.07-.066-.634-.634.634.634,9.494-9.494,9.414,9.419,9.5-9.5-9.414-9.414,9.5-9.5-9.5-9.5-9.5,9.5-9.5,9.5-9.494,9.494-9.5,9.5,9.5,9.5-.066.07-9.5,9.5,9.5,9.5,9.5,9.5,0,0,9.5,9.5,9.5,9.5,9.467-9.467,9.353,9.357-.009.009,9.5,9.5,9.485-9.485.053.053,9.494-9.494h0l9.5-9.5-9.5-9.5ZM226.7,42.565h0l-.551-.551ZM207.718,80.707h0l-3.167,3.167Z" transform="translate(431.959 -46.151)" fill="#fff"/>
        <path id="Trazado_171" data-name="Trazado 171" d="M232.352,132.137l9.353,9.348,9.5-9.5-9.5-9.5-.053.048L232.3,113.19l-9.5,9.5,9.353,9.348-9.45,9.45v0l-9.5-9.5L213.2,132l-9.494-9.489-9.441-9.445,9.441-9.441-9.5-9.5-9.5,9.5,9.441,9.441-9.441,9.445-9.5,9.5.044.044-9.436,9.436-9.472-9.472,9.41-9.41-9.467-9.467,9.467-9.467,9.454,9.45,9.5-9.5-9.454-9.454.026-.026,9.5-9.5,9.5,9.5,9.5-9.5.066.07,1.784-1.784-1.784,1.784,9.494,9.494-9.414,9.414,9.5,9.5,9.419-9.414,9.5,9.5,9.5-9.5-9.5-9.5-9.5-9.5-9.494-9.494-9.5-9.5-9.5,9.5-.066-.066-9.5-9.5-9.5,9.5-9.5,9.5v0l-9.5,9.5v0l-9.5,9.5,9.467,9.467-9.353,9.353-.009-.009-9.5,9.5,9.489,9.485-.057.053,9.5,9.5h0l9.5,9.5,9.5-9.5-3.168-3.167,3.168,3.163,9.5-9.5-.044-.044,9.436-9.436,9.5,9.5.009-.009,9.494,9.489,2.969-2.965-2.969,2.969,9.5,9.5,9.5-9.5,9.5-9.5ZM184.782,84.643h0L182.4,82.268Zm9.423,47.362-2.11-2.11,2.11,2.11,1.78-1.78Z" transform="translate(257.151 128.762)" fill="#fff"/>
        <path id="Trazado_172" data-name="Trazado 172" d="M209.761,105.325h0l9.5-9.5-9.5-9.5-9.5-9.5,0,0-9.5-9.5h0l-9.5-9.5L171.8,67.3l-9.353-9.357.009-.009-9.5-9.5-9.485,9.485-.053-.053-9.494,9.494h0l-9.5,9.5,9.5,9.5h0l9.5,9.5.044-.044,9.436,9.436,9.5-9.5-9.5-9.5-.044.044-9.436-9.441,9.471-9.472,9.41,9.41,9.467-9.467L181.24,76.8l-9.454,9.454,9.5,9.5,9.454-9.454.026.026v0l9.5,9.5-9.5,9.5,9.5,9.5-.07.066-9.494,9.494-9.414-9.419-9.5,9.5,9.414,9.414-9.5,9.5,9.5,9.5,9.5-9.5,9.5-9.5,9.494-9.494,9.5-9.5-9.5-9.5ZM181.315,76.783h0l6.661-6.661Zm18.947,19.044h0l2.375-2.375Z" transform="translate(213.001 70.145)" fill="#fff"/>
        <path id="Trazado_173" data-name="Trazado 173" d="M171.716,106.771l-9.5-9.5-9.353,9.348-9.445-9.445v0l9.5-9.5-.009-.009,9.489-9.489,9.445-9.445,9.441,9.445,9.5-9.5-9.5-9.5-9.441,9.441L162.4,59.176l-9.5,9.5,2.238,2.238L152.9,68.673l-9.5,9.5.009.009-9.489,9.489,1.053,1.057-1.053-1.057-9.5,9.5,9.5,9.5v0l9.5,9.5,9.353-9.353v0l-9.348,9.348,9.5,9.5,9.5-9.5-.053-.053Z" transform="translate(213 106.724)" fill="#fff"/>
        <path id="Trazado_174" data-name="Trazado 174" d="M241.624,73.564l.009.009,9.5-9.5-9.485-9.485.053-.057-9.494-9.494-9.5-9.5-9.5,9.5-9.5,9.5.044.044-9.441,9.436-9.5-9.5-.009.009-9.489-9.489-9.5-9.5-9.5,9.494-9.5,9.5,9.348,9.353-9.348-9.348-9.5,9.5,9.5,9.5.048-.053,9.353,9.348,9.5-9.5-9.353-9.353,9.45-9.445,9.5,9.5.009-.009,9.489,9.489,9.441,9.441L184.813,92.4l9.5,9.5,9.5-9.5-9.445-9.441,9.445-9.441,9.5-9.5-.044-.044,9.436-9.436,9.476,9.476-9.41,9.405,9.467,9.467-9.472,9.472L213.311,82.9l-9.5,9.5,9.454,9.454-.026.026h0l-9.5,9.5-9.5-9.5-9.5,9.5-.066-.066-2.233,2.234,2.233-2.234-9.494-9.494L184.6,92.4l-9.5-9.5-9.419,9.414-9.5-9.5-9.5,9.5,9.5,9.5,9.5,9.5h0l9.494,9.494,9.5,9.5,9.5-9.5.07.066h0l9.5,9.5,9.5-9.5,9.5-9.494h0l9.5-9.5,9.5-9.5-9.467-9.463Zm-47.314-9.546L193.2,65.136l1.115-1.119.634.634Zm9.428,47.362h0l1.78,1.784Zm19.044-18.947h0l.511.511Z" transform="translate(256.91 26.24)" fill="#fff"/>
        <path id="Trazado_175" data-name="Trazado 175" d="M238.148,126.121l1.78-1.784-9.5-9.5-.044.044-9.436-9.441-2.234,2.238,2.234-2.234L212.007,96.5l8.943,8.939,9.5-9.5-.009-.009,9.489-9.489-1.185-1.189,1.189,1.189,9.5-9.5-9.5-9.5-9.5-9.5L221.082,67.3l9.348-9.348-9.5-9.5-9.5,9.5.053.053-9.348,9.348,9.5,9.5,9.353-9.353,9.45,9.45h0l-9.5,9.5.009.009-9.489,9.489-9.445,9.441-9.441-9.441-9.5,9.5,9.5,9.5,9.441-9.441,9.445,9.441,9.5,9.5.044-.044,9.436,9.441-9.472,9.472-9.41-9.41-9.467,9.467-9.467-9.472,9.45-9.454-9.5-9.5-9.454,9.454-.026-.026v0l-9.5-9.5,9.5-9.5-9.5-9.5.07-.066-.634-.634.634.634,9.494-9.494,9.414,9.419,9.5-9.5-9.414-9.414,9.5-9.5-9.5-9.5-9.5,9.5-9.5,9.5L164.155,86.3l-9.5,9.5,9.5,9.5-.066.07-9.5,9.5,9.5,9.5,9.5,9.5,0,0,9.5,9.5,9.5,9.5,9.467-9.467,9.353,9.357-.009.009,9.5,9.5,9.485-9.485.053.053,9.494-9.494h0l9.5-9.5-9.5-9.5ZM192.566,76.727h0l-.551-.551Zm-18.978,38.142h0l-3.167,3.167Z" transform="translate(315.731 70.183)" fill="#fff"/>
        <path id="Trazado_176" data-name="Trazado 176" d="M197.884,97.611l9.353,9.348,9.5-9.5-9.5-9.5-.053.048-9.348-9.348-9.5,9.5,9.353,9.348-9.45,9.45v0l-9.5-9.5-.009.009-9.494-9.489-9.441-9.445,9.441-9.441-9.5-9.5-9.5,9.5,9.441,9.441-9.441,9.445-9.5,9.5.044.044-9.436,9.436-9.472-9.472,9.41-9.41-9.467-9.467,9.467-9.467,9.454,9.45,9.5-9.5-9.454-9.454.026-.026,9.5-9.5,9.5,9.5,9.5-9.5.066.07,1.784-1.784-1.784,1.784,9.494,9.494-9.414,9.414,9.5,9.5,9.419-9.414,9.5,9.5,9.5-9.5-9.5-9.5-9.5-9.5-9.494-9.494-9.5-9.5-9.5,9.5-.066-.066-9.5-9.5-9.5,9.5-9.5,9.5v0l-9.5,9.5v0l-9.5,9.5,9.467,9.467-9.353,9.353-.009-.009-9.5,9.5,9.489,9.485-.057.053,9.5,9.5,9.5,9.5,9.5-9.5-3.167-3.167,3.167,3.163,9.5-9.5-.044-.044,9.436-9.436,9.5,9.5.009-.009,9.494,9.489,2.969-2.965-2.969,2.969,9.5,9.5,9.5-9.5,9.5-9.5ZM150.314,50.116h0l-2.379-2.375Zm9.423,47.362-2.11-2.11,2.11,2.11,1.78-1.78Z" transform="translate(139.775 11.171)" fill="#fff"/>
        <path id="Trazado_177" data-name="Trazado 177" d="M175.292,70.8h0l9.5-9.5-9.5-9.5-9.5-9.5,0,0-9.5-9.5h0l-9.5-9.5-9.467,9.467-9.353-9.357.009-.009-9.5-9.5L109,23.39l-.053-.053L99.453,32.83h0l-9.5,9.5,9.5,9.5h0l9.5,9.5.044-.044,9.436,9.436,9.5-9.5-9.5-9.5-.044.044-9.436-9.441,9.472-9.472,9.41,9.41L137.3,32.8l9.472,9.472-9.454,9.454,9.5,9.5,9.454-9.454.026.026v0l9.5,9.5-9.5,9.5,9.5,9.5-.07.066-9.494,9.494-9.414-9.419-9.5,9.5,9.414,9.414-9.5,9.5,9.5,9.5,9.5-9.5,9.5-9.5,9.494-9.494,9.5-9.5-9.5-9.5ZM146.846,42.254h0l6.661-6.661ZM165.794,61.3h0l2.375-2.374Z" transform="translate(95.621 -47.439)" fill="#fff"/>
        <path id="Trazado_178" data-name="Trazado 178" d="M137.247,72.241l-9.5-9.5L118.4,72.092l-9.45-9.445,0,0,9.5-9.5-.009-.009,9.489-9.489,9.445-9.445,9.441,9.445,9.5-9.5-9.5-9.5-9.441,9.441-9.445-9.441-9.5,9.5,2.238,2.238-2.238-2.238-9.5,9.5.009.009-9.489,9.489,1.053,1.057-1.053-1.057-9.5,9.5,9.5,9.5v0l9.5,9.5L118.3,72.29v0l-9.348,9.348,9.5,9.5,9.5-9.5-.053-.053Z" transform="translate(95.621 -10.863)" fill="#fff"/>
        <path id="Trazado_179" data-name="Trazado 179" d="M207.155,39.034l.009.009,9.5-9.5-9.485-9.485L207.23,20l-9.494-9.494-9.5-9.5-9.5,9.5-9.5,9.5.044.044-9.441,9.436-9.5-9.5-.009.009-9.489-9.489-9.5-9.5-9.5,9.494-9.5,9.5,9.348,9.353-9.348-9.348-9.5,9.5,9.5,9.5.048-.053,9.353,9.348,9.5-9.5-9.353-9.353,9.45-9.445,9.5,9.5.009-.009,9.489,9.489,9.441,9.441-9.441,9.441,9.5,9.5,9.5-9.5L159.9,48.43l9.445-9.441,9.5-9.5-.044-.044,9.441-9.436,9.472,9.476-9.41,9.405,9.467,9.467L188.3,57.827l-9.454-9.454-9.5,9.5,9.454,9.454-.026.026h0l-9.5,9.5-9.5-9.5-9.5,9.5-.066-.066-2.234,2.234,2.234-2.234-9.494-9.494,9.419-9.419-9.5-9.5-9.414,9.414-9.5-9.5-9.5,9.5,9.5,9.5,9.5,9.5,9.494,9.494,9.5,9.5,9.5-9.5.07.066h0l9.5,9.5,9.5-9.5,9.5-9.494h0l9.5-9.5,9.5-9.5L197.8,48.391Zm-47.314-9.546-1.115,1.119,1.115-1.119.634.634Zm9.428,47.362h0l1.78,1.784ZM188.314,57.9h0l.511.511Z" transform="translate(139.53 -91.348)" fill="#fff"/>
        <path id="Trazado_180" data-name="Trazado 180" d="M203.679,91.591l1.78-1.784-9.5-9.5-.044.044-9.436-9.441-2.238,2.238,2.238-2.234-8.943-8.943,8.943,8.939,9.5-9.5-.009-.009,9.489-9.489-1.185-1.189,1.189,1.189,9.5-9.5-9.5-9.5-9.5-9.5-9.353,9.348,9.348-9.348-9.5-9.5-9.5,9.5.053.053-9.348,9.348,9.5,9.5,9.353-9.353,9.45,9.45h0l-9.5,9.5.009.009-9.494,9.489h0l-9.445,9.441L158.1,61.414l-9.5,9.5,9.5,9.5,9.441-9.441,9.445,9.441h0l9.5,9.5.044-.044,9.436,9.441-9.471,9.472-9.41-9.41-9.467,9.467-9.467-9.472,9.45-9.454-9.5-9.5-9.454,9.454-.026-.026v0l-9.5-9.5,9.5-9.5-9.5-9.5.07-.066-.634-.634.634.634,9.494-9.494L158.1,61.2l9.5-9.5-9.414-9.414,9.5-9.5-9.5-9.5-9.5,9.5-9.5,9.5-9.494,9.494-9.5,9.5,9.5,9.5-.066.07-9.5,9.5,9.5,9.5,9.5,9.5,0,0,9.5,9.5,9.5,9.5,9.467-9.467,9.353,9.357-.009.009,9.5,9.5,9.485-9.485.053.053,9.494-9.494h0l9.5-9.5-9.5-9.5ZM158.1,42.2h0l-.551-.551ZM139.118,80.339h0l-3.168,3.167Z" transform="translate(198.351 -47.405)" fill="#fff"/>
        <path id="Trazado_181" data-name="Trazado 181" d="M163.638,132.306l9.353,9.348,9.5-9.5-9.5-9.5-.053.048-9.348-9.348-9.5,9.5,9.353,9.348-9.45,9.45v0l-9.5-9.5-.009.009-9.494-9.489-9.441-9.445,9.441-9.441-9.5-9.5-9.5,9.5,9.441,9.441-9.441,9.445-9.5,9.5.044.044L97.1,141.654l-9.472-9.472,9.41-9.41-9.467-9.467,9.467-9.467,9.454,9.45,9.5-9.5-9.454-9.454.026-.026,9.5-9.5,9.5,9.5,9.5-9.5.066.071,1.784-1.784-1.784,1.784,9.494,9.494-9.414,9.414,9.5,9.5,9.419-9.414,9.5,9.5,9.5-9.5-9.5-9.5-9.5-9.5-9.494-9.494-9.5-9.5-9.5,9.5-.066-.066-9.5-9.5-9.5,9.5-9.5,9.5v0l-9.5,9.5v0l-9.5,9.5,9.467,9.467-9.353,9.353-.009-.009-9.5,9.5,9.489,9.485-.057.053,9.5,9.5h0l9.5,9.5,9.5-9.5-3.167-3.167,3.167,3.163,9.5-9.5-.044-.044,9.436-9.436,9.5,9.5.009-.009,9.494,9.489,2.969-2.965-2.969,2.969,9.5,9.5,9.5-9.5,9.5-9.5ZM116.068,84.812h0l-2.379-2.374Zm9.423,47.362-2.11-2.11,2.11,2.11,1.78-1.78Z" transform="translate(23.155 129.338)" fill="#fff"/>
        <path id="Trazado_182" data-name="Trazado 182" d="M141.046,105.494h0l9.5-9.5-9.5-9.5-9.5-9.5,0,0-9.5-9.5h0l-9.5-9.5-9.467,9.467L93.732,58.11l.009-.009-9.5-9.5-9.485,9.485-.053-.053-9.494,9.494h0l-9.5,9.5,9.5,9.5h0l9.5,9.5.044-.044,9.436,9.436,9.5-9.5-9.5-9.5-.044.044-9.436-9.441,9.472-9.472,9.41,9.41,9.467-9.467,9.472,9.472-9.454,9.454,9.5,9.5,9.454-9.454.026.026v0l9.5,9.5-9.5,9.5,9.5,9.5-.07.066-9.494,9.494-9.414-9.419-9.5,9.5,9.414,9.414-9.5,9.5,9.5,9.5,9.5-9.5,9.5-9.5,9.494-9.494,9.5-9.5-9.5-9.5ZM112.6,76.952h0l6.661-6.661ZM131.548,96h0l2.375-2.374Z" transform="translate(-20.999 70.721)" fill="#fff"/>
        <path id="Trazado_183" data-name="Trazado 183" d="M103,106.94l-9.5-9.5-9.353,9.348-9.445-9.445v0l9.5-9.5-.009-.009,9.489-9.489,9.445-9.445,9.441,9.445,9.5-9.5-9.5-9.5-9.441,9.441-9.445-9.441-9.5,9.5,2.238,2.238-2.238-2.238-9.5,9.5.009.009-9.489,9.489L66.26,88.9l-1.053-1.057-9.5,9.5,9.5,9.5v0l9.5,9.5,9.353-9.353v0l-9.348,9.348,9.5,9.5,9.5-9.5-.053-.053Z" transform="translate(-20.999 107.299)" fill="#fff"/>
        <path id="Trazado_184" data-name="Trazado 184" d="M172.909,73.732l.009.009,9.5-9.5-9.485-9.485.053-.057-9.494-9.494-9.5-9.5-9.5,9.5-9.5,9.5.044.044L125.6,64.185l-9.5-9.5-.009.009L106.6,45.207l-9.5-9.5L87.6,45.2l-9.5,9.5,9.348,9.353L78.1,54.7l-9.5,9.5,9.5,9.5.048-.053L87.5,83,97,73.5,87.648,64.15,97.1,54.7l9.5,9.5.009-.009,9.489,9.489,9.441,9.441L116.1,92.569l9.5,9.5,9.5-9.5-9.445-9.441,9.445-9.441,9.5-9.5-.044-.044,9.441-9.436,9.472,9.476-9.41,9.405,9.467,9.467-9.472,9.472L144.6,83.071l-9.5,9.5,9.454,9.454-.026.026h0l-9.5,9.5-9.5-9.5-9.5,9.5-.066-.066-2.233,2.234,2.233-2.234-9.494-9.494,9.419-9.419-9.5-9.5-9.419,9.414-9.5-9.5-9.5,9.5,9.5,9.5,9.5,9.5h0l9.494,9.494,9.5,9.5,9.5-9.5.071.066,0,0,9.5,9.5,9.5-9.5,9.5-9.5h0l9.5-9.5,9.5-9.5-9.467-9.463ZM125.6,64.185,124.481,65.3l1.115-1.119.634.634Zm9.428,47.362h0l1.78,1.784ZM154.068,92.6h0l.511.511Z" transform="translate(22.909 26.812)" fill="#fff"/>
        <path id="Trazado_185" data-name="Trazado 185" d="M169.433,126.29l1.78-1.784-9.5-9.5-.044.044-9.436-9.441L150,107.849l2.233-2.234-8.943-8.943,8.943,8.938,9.5-9.5-.009-.009,9.489-9.489-1.185-1.189,1.189,1.189,9.5-9.5-9.5-9.5-9.5-9.5-9.353,9.348,9.348-9.348-9.5-9.5-9.5,9.5.053.053-9.348,9.348,9.5,9.5,9.353-9.353,9.45,9.45h0l-9.5,9.5.009.009-9.489,9.489-9.445,9.441-9.441-9.441-9.5,9.5,9.5,9.5,9.441-9.441,9.445,9.441,9.5,9.5.044-.044,9.436,9.441-9.472,9.472-9.41-9.41-9.467,9.467-9.467-9.472,9.45-9.454-9.5-9.5-9.454,9.454-.026-.026v0l-9.5-9.5,9.5-9.5-9.5-9.5.07-.066-.634-.634.634.634,9.494-9.494,9.414,9.419,9.5-9.5-9.414-9.414,9.5-9.5-9.5-9.5-9.5,9.5-9.5,9.5L95.44,86.474l-9.5,9.5,9.5,9.5-.066.071-9.5,9.5,9.5,9.5,9.5,9.5,0,0,9.5,9.5,9.5,9.5,9.467-9.467,9.353,9.357-.009.009,9.5,9.5,9.485-9.485.053.053,9.494-9.494h0l9.5-9.5-9.5-9.5ZM123.851,76.9h0l-.551-.551Zm-18.978,38.142h0l-3.167,3.167Z" transform="translate(81.73 70.758)" fill="#fff"/>
        <path id="Trazado_186" data-name="Trazado 186" d="M129.169,97.776l9.353,9.348,9.5-9.5-9.5-9.5-.053.048-9.348-9.348-9.5,9.5,9.353,9.348-9.45,9.45v0l-9.5-9.5-.009.009-9.494-9.489L91.08,78.7l9.441-9.441-9.5-9.5-9.5,9.5L90.965,78.7l-9.441,9.445-9.5,9.5.044.044-9.436,9.436-9.472-9.472,9.41-9.41L53.1,78.776l9.467-9.467,9.454,9.45,9.5-9.5-9.454-9.454.026-.026,9.5-9.5,9.5,9.5,9.5-9.5.066.07,1.784-1.784-1.784,1.784,9.494,9.494-9.414,9.414,9.5,9.5,9.419-9.414,9.5,9.5,9.5-9.5-9.5-9.5-9.5-9.5-9.494-9.494-9.5-9.5-9.5,9.5-.066-.066-9.5-9.5-9.5,9.5-9.5,9.5v0l-9.5,9.5v0l-9.5,9.5,9.467,9.467L43.713,88.1l-.009-.009-9.5,9.5,9.489,9.485-.057.053,9.5,9.5h0l9.5,9.5,9.5-9.5-3.167-3.167,3.167,3.163,9.5-9.5-.044-.044,9.436-9.436,9.5,9.5.009-.009,9.494,9.489,2.969-2.965-2.969,2.969,9.5,9.5,9.5-9.5,9.5-9.5ZM81.6,50.282h0l-2.379-2.375Zm9.423,47.362-2.11-2.11,2.11,2.11,1.78-1.78Z" transform="translate(-94.225 11.75)" fill="#fff"/>
        <path id="Trazado_187" data-name="Trazado 187" d="M138.437,39.2l.013.009,9.494-9.5-9.485-9.485.057-.057-9.494-9.494-9.5-9.5-9.5,9.5-9.5,9.5.044.044-9.436,9.436-9.5-9.5-.009.009-9.485-9.489-9.507-9.5-9.494,9.494-9.5,9.5,9.348,9.353-9.348-9.348-9.5,9.5,9.5,9.5.048-.053,9.353,9.348,9.494-9.5L53.18,29.621l9.445-9.445,9.507,9.5,0-.009,9.489,9.489L91.07,48.6,81.625,58.04l9.5,9.5,9.5-9.5L91.185,48.6l9.441-9.441,9.5-9.5-.048-.044,9.441-9.436L129,29.652l-9.414,9.405,9.472,9.467L119.582,58l-9.454-9.454-9.5,9.5,9.454,9.454-.022.026h-.009l-9.5,9.5-9.494-9.5-9.5,9.5-.066-.066-2.234,2.234,2.234-2.234L72,67.459l9.414-9.419-9.5-9.5-9.419,9.414-9.5-9.5-9.494,9.5,9.494,9.5,9.5,9.5,9.494,9.494,9.5,9.5,9.494-9.5.075.066h-.009l9.5,9.5,9.5-9.5,9.5-9.494h0l9.5-9.5,9.494-9.5-9.463-9.463ZM91.128,29.656l-1.119,1.119,1.119-1.119.634.634Zm9.423,47.362h0l1.78,1.784ZM119.6,58.071h0l.507.511Z" transform="translate(-94.467 -90.772)" fill="#fff"/>
        <path id="Trazado_188" data-name="Trazado 188" d="M134.965,91.76l1.78-1.784-9.5-9.5-.044.044-9.436-9.441-2.234,2.238,2.234-2.238-8.943-8.938,8.943,8.938,9.5-9.5-.009-.009,9.489-9.489L135.56,50.9l1.189,1.189,9.5-9.5-9.5-9.5-9.5-9.5L117.9,32.935l9.348-9.348-9.5-9.5-9.5,9.5.053.053-9.348,9.348,9.5,9.5,9.353-9.353,9.45,9.45h0l-9.5,9.5.009.009-9.489,9.489-9.445,9.441-9.441-9.441-9.5,9.5,9.5,9.5,9.441-9.441,9.445,9.441,9.5,9.5.044-.044,9.436,9.441-9.472,9.472-9.41-9.41L98.9,109.007l-9.467-9.472,9.45-9.454-9.5-9.5-9.454,9.454-.026-.026v0l-9.5-9.5,9.5-9.5-9.5-9.5.071-.066-.634-.634.634.634,9.494-9.494,9.414,9.419,9.5-9.5L89.466,42.45l9.5-9.5-9.5-9.5-9.5,9.5-9.5,9.5-9.494,9.494-9.5,9.5,9.5,9.5-.066.07-9.5,9.5,9.5,9.5,9.5,9.5,0,0,9.5,9.5,9.5,9.5,9.467-9.467,9.353,9.357-.009.009,9.5,9.5,9.485-9.485.053.053,9.494-9.494h0l9.5-9.5-9.5-9.5ZM89.383,42.366h0l-.551-.551ZM70.4,80.508h0l-3.167,3.167Z" transform="translate(-35.646 -46.829)" fill="#fff"/>
        <path id="Trazado_189" data-name="Trazado 189" d="M310.524,142.5l.009.009,9.5-9.5-9.485-9.485.053-.057-9.494-9.494-9.5-9.5-9.5,9.5-9.5,9.5.044.044-9.441,9.436-9.5-9.5-.009.009-9.489-9.489-9.5-9.5-9.5,9.494-9.5,9.5,9.348,9.353-9.348-9.348-9.5,9.5,9.5,9.5.048-.053,9.353,9.348,9.5-9.5-9.353-9.353,9.45-9.445,9.5,9.5.009-.009,9.489,9.489,9.441,9.441-9.441,9.441,9.5,9.5,9.5-9.5-9.445-9.441,9.445-9.441,9.5-9.5-.044-.044,9.441-9.436,9.472,9.476-9.41,9.405,9.467,9.467-9.472,9.472-9.454-9.454-9.5,9.5,9.454,9.454-.026.026h0l-9.5,9.5-9.5-9.5-9.5,9.5-.066-.066-2.234,2.233,2.234-2.233-9.493-9.494,9.419-9.419-9.5-9.5-9.419,9.414-9.5-9.5-9.5,9.5,9.5,9.5,9.5,9.5h0l9.494,9.494,9.5,9.5,9.5-9.5.07.066h0l9.5,9.5,9.5-9.5,9.5-9.494h0l9.5-9.5,9.5-9.5-9.467-9.463Zm-47.314-9.546-1.115,1.119,1.115-1.119.634.634Zm9.428,47.362h0l1.78,1.784Zm19.044-18.948h0l.511.511Z" transform="translate(491.54 260.996)" fill="#fff"/>
        <path id="Trazado_190" data-name="Trazado 190" d="M266.784,166.545l9.353,9.348,9.5-9.5-9.5-9.5-.053.048-9.348-9.348-9.5,9.5,9.353,9.348-9.449,9.45v0l-9.5-9.5-.009.009-9.494-9.489-9.441-9.445,9.441-9.441-9.5-9.5-9.5,9.5,9.441,9.441-9.441,9.445-9.5,9.5.044.044-9.436,9.436-9.472-9.472,9.41-9.41-9.467-9.467,9.467-9.467,9.454,9.45,9.5-9.5-9.454-9.454.026-.026,9.5-9.5,9.5,9.5,9.5-9.5.066.071,1.784-1.784-1.784,1.784,9.494,9.494-9.414,9.414,9.5,9.5,9.419-9.414,9.5,9.5,9.5-9.5-9.5-9.5-9.5-9.5-9.494-9.494-9.5-9.5-9.5,9.5-.066-.066-9.5-9.5-9.5,9.5-9.5,9.5v0l-9.5,9.5v0l-9.5,9.5,9.467,9.467-9.353,9.353-.009-.009-9.5,9.5,9.489,9.485-.057.053,9.5,9.5,9.5,9.5,9.5-9.5-3.167-3.167,3.167,3.163,9.5-9.5-.044-.044,9.436-9.436,9.5,9.5.009-.009,9.494,9.489,2.969-2.965-2.969,2.969,9.5,9.5,9.5-9.5,9.5-9.5Zm-47.569-47.494h0l-2.379-2.374Zm9.423,47.362-2.11-2.11,2.11,2.11,1.78-1.78Z" transform="translate(374.405 245.934)" fill="#fff"/>
        <path id="Trazado_191" data-name="Trazado 191" d="M244.192,139.733h0l9.5-9.5-9.5-9.5-9.5-9.5,0,0-9.5-9.5h0l-9.5-9.5-9.467,9.467-9.353-9.357.009-.009-9.5-9.5L177.9,92.327l-.053-.053-9.494,9.494h0l-9.5,9.5,9.5,9.5h0l9.5,9.5.044-.044,9.436,9.436,9.5-9.5-9.5-9.5-.044.044-9.436-9.441,9.472-9.472,9.41,9.41,9.467-9.467,9.472,9.472-9.454,9.454,9.5,9.5,9.454-9.454.026.026v0l9.5,9.5-9.5,9.5,9.5,9.5-.07.066L225.13,158.8l-9.414-9.419-9.5,9.5,9.414,9.414-9.5,9.5,9.5,9.5,9.5-9.5,9.5-9.5,9.494-9.494,9.5-9.5-9.5-9.5Zm-28.446-28.542h0l6.661-6.661Zm18.947,19.044h0l2.374-2.375Z" transform="translate(330.251 187.317)" fill="#fff"/>
        <path id="Trazado_192" data-name="Trazado 192" d="M206.147,141.179l-9.5-9.5-9.353,9.348-9.45-9.445,0,0,9.5-9.5-.009-.009,9.489-9.489,9.445-9.445,9.441,9.445,9.5-9.5-9.5-9.5-9.441,9.441-9.445-9.441-9.5,9.5,2.238,2.238-2.238-2.238-9.5,9.5.009.009-9.489,9.489,1.053,1.057-1.053-1.057-9.5,9.5,9.5,9.5v0l9.5,9.5,9.353-9.353v0l-9.348,9.348,9.5,9.5,9.5-9.5-.053-.053Z" transform="translate(330.251 223.896)" fill="#fff"/>
        <path id="Trazado_193" data-name="Trazado 193" d="M276.055,107.972l.009.009,9.5-9.5L276.077,89l.053-.057-9.493-9.494-9.5-9.5-9.5,9.5-9.5,9.5.044.044-9.441,9.436-9.5-9.5-.009.009-9.489-9.489-9.5-9.5-9.5,9.494-9.5,9.5,9.348,9.353-9.348-9.348-9.5,9.5,9.5,9.5.048-.053,9.353,9.348,9.5-9.5-9.353-9.353,9.45-9.445,9.5,9.5.009-.009,9.489,9.489,9.441,9.441-9.441,9.441,9.5,9.5,9.5-9.5-9.445-9.441,9.445-9.441,9.5-9.5-.044-.044,9.441-9.436,9.472,9.476-9.41,9.405,9.467,9.467-9.472,9.472-9.454-9.454-9.5,9.5,9.454,9.454-.026.026h0l-9.5,9.5-9.5-9.5-9.5,9.5-.066-.066-2.233,2.233,2.233-2.233-9.494-9.494,9.419-9.419-9.5-9.5-9.414,9.414-9.5-9.5-9.5,9.5,9.5,9.5,9.5,9.5,9.494,9.494,9.5,9.5,9.5-9.5.07.066,0,0,9.5,9.5,9.5-9.5,9.5-9.5h0l9.5-9.5,9.5-9.5-9.467-9.463Zm-47.314-9.546-1.115,1.119,1.115-1.119.634.634Zm9.428,47.362h0l1.78,1.784Zm19.044-18.948h0l.511.511Z" transform="translate(374.16 143.412)" fill="#fff"/>
        <path id="Trazado_194" data-name="Trazado 194" d="M272.579,160.529l1.78-1.784-9.5-9.5-.044.044-9.436-9.441-2.238,2.238,2.238-2.234-8.943-8.943,8.943,8.939,9.5-9.5-.009-.009,9.489-9.489-1.185-1.189,1.189,1.189,9.5-9.5-9.5-9.5-9.5-9.5-9.353,9.348,9.348-9.348-9.5-9.5-9.5,9.5.053.053-9.348,9.348,9.5,9.5,9.353-9.353,9.449,9.45h0l-9.5,9.5.009.009-9.489,9.489-9.445,9.441L227,130.352l-9.5,9.5,9.5,9.5,9.441-9.441,9.445,9.441,9.5,9.5.044-.044,9.436,9.441-9.471,9.472-9.41-9.41-9.467,9.467-9.467-9.472,9.449-9.454-9.5-9.5-9.454,9.454-.026-.026v0l-9.5-9.5,9.5-9.5-9.5-9.5.07-.066-.634-.634.634.634,9.494-9.494L227,130.136l9.5-9.5-9.414-9.414,9.5-9.5-9.5-9.5-9.5,9.5-9.5,9.5-9.494,9.494-9.5,9.5,9.5,9.5-.066.07-9.5,9.5,9.5,9.5,9.5,9.5,0,0,9.5,9.5,9.5,9.5,9.467-9.467,9.353,9.357-.009.009,9.5,9.5,9.485-9.485.053.053,9.494-9.494h0l9.5-9.5-9.5-9.5ZM227,111.136h0l-.551-.551Zm-18.978,38.142h0l-3.167,3.167Z" transform="translate(432.981 187.355)" fill="#fff"/>
        <path id="Trazado_195" data-name="Trazado 195" d="M241.809,142.67l.009.009,9.5-9.5-9.485-9.485.053-.057-9.494-9.494-9.5-9.5-9.5,9.5-9.5,9.5.044.044-9.441,9.436-9.5-9.5-.009.009-9.489-9.489-9.5-9.5-9.5,9.494-9.5,9.5,9.348,9.353L147,123.643l-9.5,9.5,9.5,9.5.048-.053,9.353,9.348,9.5-9.5-9.353-9.353,9.45-9.445,9.5,9.5.009-.009L185,142.626l9.441,9.441L185,161.507l9.5,9.5,9.5-9.5-9.445-9.441L204,142.626l9.5-9.5-.044-.044,9.441-9.436,9.472,9.476-9.41,9.405,9.467,9.467-9.472,9.472-9.454-9.454-9.5,9.5,9.454,9.454-.027.026h0l-9.5,9.5-9.5-9.5-9.5,9.5-.066-.066-2.233,2.233,2.233-2.233-9.494-9.494,9.419-9.419-9.5-9.5-9.419,9.414-9.5-9.5-9.5,9.5,9.5,9.5,9.5,9.5h0l9.494,9.494,9.5,9.5,9.5-9.5.071.066h0l9.5,9.5,9.5-9.5,9.5-9.494h0l9.5-9.5,9.5-9.5-9.467-9.463ZM194.5,133.123l-1.115,1.119,1.115-1.119.634.634Zm9.428,47.362h0l1.78,1.784Zm19.044-18.948h0l.511.511Z" transform="translate(257.54 261.572)" fill="#fff"/>
        <path id="Trazado_196" data-name="Trazado 196" d="M198.069,166.718l9.353,9.348,9.5-9.5-9.5-9.5-.053.048-9.348-9.348-9.5,9.5,9.353,9.348-9.45,9.45v0l-9.5-9.5-.009.009-9.494-9.489-9.441-9.445,9.441-9.441-9.5-9.5-9.5,9.5,9.441,9.441-9.441,9.445-9.5,9.5.044.044-9.436,9.436-9.472-9.472,9.41-9.41L122,147.717l9.467-9.467,9.454,9.45,9.5-9.5-9.454-9.454.026-.026,9.5-9.5,9.5,9.5,9.5-9.5.066.07,1.784-1.784-1.784,1.784,9.494,9.494-9.414,9.414,9.5,9.5,9.419-9.414,9.5,9.5,9.5-9.5-9.5-9.5-9.5-9.5-9.494-9.494-9.5-9.5-9.5,9.5-.066-.066-9.5-9.5-9.5,9.5-9.5,9.5v0l-9.5,9.5v0l-9.5,9.5,9.467,9.467-9.353,9.353-.009-.009-9.5,9.5,9.489,9.485-.057.053,9.5,9.5h0l9.5,9.5,9.5-9.5L137.86,182.4l3.168,3.163,9.5-9.5-.044-.044,9.436-9.436,9.5,9.5.009-.009,9.494,9.489,2.969-2.965-2.969,2.969,9.5,9.5,9.5-9.5,9.5-9.5ZM150.5,119.223h0l-2.379-2.375Zm9.423,47.362-2.11-2.11,2.11,2.11,1.78-1.78Z" transform="translate(140.405 246.506)" fill="#fff"/>
        <path id="Trazado_197" data-name="Trazado 197" d="M175.477,139.9h0l9.5-9.5-9.5-9.5-9.5-9.5,0,0-9.5-9.5h0l-9.5-9.5-9.467,9.467-9.353-9.357.009-.009-9.5-9.5L109.185,92.5l-.053-.053-9.494,9.494h0l-9.5,9.5,9.5,9.5h0l9.5,9.5.044-.044,9.436,9.436,9.5-9.5-9.5-9.5-.044.044-9.436-9.441,9.472-9.472,9.41,9.41,9.467-9.467,9.472,9.472-9.454,9.454,9.5,9.5,9.454-9.454.026.026v0l9.5,9.5-9.5,9.5,9.5,9.5-.07.066-9.494,9.494L147,149.545l-9.5,9.5,9.414,9.414-9.5,9.5,9.5,9.5,9.5-9.5,9.5-9.5,9.494-9.494,9.5-9.5-9.5-9.5ZM147.031,111.36h0l6.661-6.661ZM165.979,130.4h0l2.375-2.374Z" transform="translate(96.251 187.893)" fill="#fff"/>
        <path id="Trazado_198" data-name="Trazado 198" d="M137.432,141.348l-9.5-9.5-9.353,9.348-9.445-9.445v0l9.5-9.5-.009-.009,9.489-9.489,9.445-9.445L147,112.753l9.5-9.5-9.5-9.5-9.441,9.441-9.445-9.441-9.5,9.5,2.238,2.238-2.238-2.238-9.5,9.5.009.009-9.489,9.489,1.053,1.057-1.053-1.057-9.5,9.5,9.5,9.5v0l9.5,9.5,9.353-9.353v0l-9.348,9.348,9.5,9.5,9.5-9.5-.053-.053Z" transform="translate(96.252 224.471)" fill="#fff"/>
        <path id="Trazado_199" data-name="Trazado 199" d="M207.34,108.14l.009.009,9.5-9.5-9.485-9.485.053-.057-9.494-9.494-9.5-9.5-9.5,9.5-9.5,9.5.044.044-9.441,9.436-9.5-9.5-.009.009-9.489-9.489-9.5-9.5-9.5,9.494-9.5,9.5,9.348,9.353-9.348-9.348-9.5,9.5,9.5,9.5.048-.053,9.353,9.348,9.5-9.5-9.353-9.353,9.45-9.445,9.5,9.5.009-.009,9.489,9.489,9.441,9.441-9.441,9.441,9.5,9.5,9.5-9.5-9.445-9.441,9.445-9.441,9.5-9.5-.044-.044,9.436-9.436,9.476,9.476-9.41,9.405,9.467,9.467-9.472,9.472-9.454-9.454-9.5,9.5,9.454,9.454-.026.026h0l-9.5,9.5-9.5-9.5-9.5,9.5-.066-.066-2.234,2.234,2.234-2.234-9.494-9.494,9.419-9.419-9.5-9.5-9.419,9.414-9.5-9.5-9.5,9.5,9.5,9.5,9.5,9.5h0l9.494,9.494,9.5,9.5,9.5-9.5.071.066h0l9.5,9.5,9.5-9.5,9.5-9.494h0l9.5-9.5,9.5-9.5-9.467-9.463Zm-47.314-9.546-1.115,1.119,1.115-1.119.634.634Zm9.427,47.362h0l1.78,1.784ZM188.5,127.008h0l.511.511Z" transform="translate(140.16 143.984)" fill="#fff"/>
        <path id="Trazado_200" data-name="Trazado 200" d="M203.864,160.7l1.78-1.784-9.494-9.5-.048.044-9.436-9.441-2.238,2.238,2.238-2.234-8.943-8.943,8.943,8.938,9.5-9.5-.009-.009,9.489-9.489-1.185-1.189,1.189,1.189,9.5-9.5-9.5-9.5-9.5-9.5-9.353,9.348,9.353-9.348-9.5-9.5-9.5,9.5.053.053-9.348,9.348,9.5,9.5,9.353-9.353,9.45,9.45h0l-9.5,9.5.009.009-9.489,9.489-9.445,9.441-9.441-9.441-9.5,9.5,9.5,9.5,9.441-9.441,9.445,9.441,9.5,9.5.044-.044,9.441,9.441-9.476,9.472-9.41-9.41-9.467,9.467-9.467-9.472,9.45-9.454-9.5-9.5-9.454,9.454-.026-.026v0l-9.494-9.5,9.494-9.5-9.494-9.5.066-.066-.634-.634.634.634,9.494-9.494,9.414,9.419,9.5-9.5-9.414-9.414,9.5-9.5-9.5-9.5-9.5,9.5-9.494,9.5-9.5,9.494-9.5,9.5,9.5,9.5-.066.07-9.5,9.5,9.5,9.5,9.5,9.5-.009,0,9.5,9.5,9.5,9.5,9.467-9.467,9.357,9.357-.013.009,9.5,9.5,9.485-9.485.053.053,9.494-9.494h0l9.5-9.5-9.5-9.5ZM158.282,111.3h0l-.551-.551Zm-18.974,38.142h0l-3.172,3.167Z" transform="translate(198.981 187.93)" fill="#fff"/>
        <path id="Trazado_201" data-name="Trazado 201" d="M173.21,142.3l.009.009,9.5-9.5-9.485-9.485.053-.057-9.494-9.494-9.5-9.5-9.5,9.5-9.5,9.5.044.044-9.441,9.436-9.5-9.5-.009.009-9.489-9.489-9.5-9.5-9.5,9.494-9.5,9.5,9.348,9.353L78.4,123.275l-9.5,9.5,9.5,9.5.048-.053,9.353,9.348,9.5-9.5-9.353-9.353,9.45-9.445,9.5,9.5.009-.009,9.489,9.489,9.441,9.441-9.441,9.441,9.5,9.5,9.5-9.5-9.445-9.441,9.445-9.441,9.5-9.5-.044-.044,9.436-9.436,9.476,9.476-9.41,9.405,9.467,9.467-9.472,9.472-9.454-9.454-9.5,9.5,9.454,9.454-.026.026h0l-9.5,9.5-9.5-9.5-9.5,9.5-.066-.066-2.234,2.234,2.234-2.234-9.494-9.494,9.419-9.419-9.5-9.5-9.419,9.414-9.5-9.5-9.5,9.5,9.5,9.5,9.5,9.5h0l9.494,9.494,9.5,9.5,9.5-9.5.07.066h0l9.5,9.5,9.5-9.5,9.5-9.494h0l9.5-9.5,9.5-9.5-9.467-9.463ZM125.9,132.755l-1.115,1.119,1.115-1.119.634.634Zm9.428,47.362h0l1.78,1.784Zm19.044-18.948h0l.511.511Z" transform="translate(23.934 260.318)" fill="#fff"/>
        <path id="Trazado_202" data-name="Trazado 202" d="M129.47,166.349l9.353,9.348,9.5-9.5-9.5-9.5-.053.048-9.348-9.348-9.5,9.5,9.353,9.348-9.45,9.449v0l-9.5-9.5-.009.009-9.494-9.489-9.441-9.445,9.441-9.441-9.5-9.5-9.5,9.5,9.441,9.441-9.441,9.445-9.5,9.5.044.044L62.931,175.7l-9.472-9.472,9.41-9.41L53.4,147.348l9.467-9.467,9.454,9.45,9.5-9.5-9.454-9.454.026-.026,9.5-9.5,9.5,9.5,9.5-9.5.066.07,1.784-1.784-1.784,1.784,9.494,9.494-9.414,9.414,9.5,9.5,9.419-9.414,9.5,9.5,9.5-9.5-9.5-9.5-9.5-9.5-9.494-9.494-9.5-9.5-9.5,9.5-.066-.066-9.5-9.5-9.5,9.5-9.5,9.5v0l-9.5,9.5v0l-9.5,9.5,9.467,9.467-9.353,9.353-.009-.009-9.5,9.5,9.489,9.485-.057.053,9.5,9.5h0l9.5,9.5,9.5-9.5-3.167-3.167,3.167,3.163,9.5-9.5-.044-.044,9.436-9.436,9.5,9.5.009-.009,9.494,9.489,2.969-2.965-2.969,2.969,9.5,9.5,9.5-9.5,9.5-9.5ZM81.9,118.854h0l-2.379-2.374Zm9.423,47.362-2.11-2.11,2.11,2.11,1.78-1.78Z" transform="translate(-93.2 245.25)" fill="#fff"/>
        <path id="Trazado_203" data-name="Trazado 203" d="M138.741,107.772l.009.009,9.5-9.5L138.763,88.8l.053-.057-9.494-9.494-9.5-9.5-9.5,9.5-9.5,9.5.044.044-9.441,9.436-9.5-9.5-.009.009-9.489-9.489-9.5-9.5-9.5,9.494-9.5,9.5,9.348,9.353-9.348-9.348-9.5,9.5,9.5,9.5.048-.053,9.353,9.348,9.5-9.5L53.48,98.19l9.45-9.445,9.5,9.5.009-.009,9.489,9.489,9.441,9.441-9.441,9.441,9.5,9.5,9.5-9.5-9.445-9.441,9.445-9.441,9.5-9.5-.044-.044,9.441-9.436,9.472,9.476-9.41,9.405,9.467,9.467-9.472,9.472-9.454-9.454-9.5,9.5,9.454,9.454-.026.026h0l-9.5,9.5-9.5-9.5-9.5,9.5-.066-.066-2.234,2.234,2.234-2.234L72.3,136.028l9.419-9.419-9.5-9.5-9.419,9.414-9.5-9.5-9.5,9.5,9.5,9.5,9.5,9.5h0l9.494,9.494,9.5,9.5,9.5-9.5.07.066h0l9.5,9.5,9.5-9.5,9.5-9.494h0l9.5-9.5,9.5-9.5-9.467-9.463ZM91.428,98.225l-1.115,1.119,1.115-1.119.634.634Zm9.427,47.362h0l1.78,1.784ZM119.9,126.64h0l.511.511Z" transform="translate(-93.445 142.731)" fill="#fff"/>
        <path id="Trazado_204" data-name="Trazado 204" d="M135.265,160.329l1.78-1.784-9.5-9.5-.044.044-9.436-9.441-2.234,2.238,2.234-2.234-8.943-8.943,8.943,8.939,9.5-9.5-.009-.009,9.489-9.489-1.185-1.189,1.189,1.189,9.5-9.5-9.5-9.5-9.5-9.5L118.2,101.5l9.348-9.348-9.5-9.5-9.5,9.5.053.053-9.348,9.348,9.5,9.5L118.1,101.7l9.45,9.45h0l-9.5,9.5.009.009-9.489,9.489-9.445,9.441-9.441-9.441-9.5,9.5,9.5,9.5,9.441-9.441,9.445,9.441,9.5,9.5.044-.044,9.436,9.441-9.472,9.472-9.41-9.41L99.2,177.576,89.731,168.1l9.45-9.454-9.5-9.5-9.454,9.454-.026-.026v0l-9.5-9.5,9.5-9.5-9.5-9.5.071-.066-.634-.634.634.634,9.494-9.494,9.414,9.419,9.5-9.5-9.414-9.414,9.5-9.5-9.5-9.5-9.5,9.5-9.5,9.5-9.494,9.494-9.5,9.5,9.5,9.5-.066.07-9.5,9.5,9.5,9.5,9.5,9.5,0,0,9.5,9.5,9.5,9.5,9.467-9.467,9.353,9.357-.009.009,9.5,9.5,9.485-9.485.053.053,9.494-9.494h0l9.5-9.5-9.5-9.5ZM89.683,110.935h0l-.551-.551ZM70.7,149.077h0l-3.167,3.167Z" transform="translate(-34.624 186.674)" fill="#fff"/>
        <path id="Trazado_205" data-name="Trazado 205" d="M300.952,201.656,310.3,211l9.5-9.5-9.5-9.5-.053.048-9.348-9.348-9.5,9.5,9.353,9.348-9.45,9.45v0l-9.5-9.5-.009.009-9.494-9.489-9.441-9.445,9.441-9.441-9.5-9.5-9.5,9.5,9.441,9.441-9.441,9.445-9.5,9.5.044.044L234.413,211l-9.472-9.472,9.41-9.41-9.467-9.467,9.467-9.467,9.454,9.45,9.5-9.5-9.454-9.454.026-.026,9.5-9.5,9.5,9.5,9.5-9.5.066.071,1.784-1.784-1.784,1.784,9.493,9.494-9.414,9.414,9.5,9.5,9.419-9.414,9.5,9.5,9.5-9.5-9.5-9.5-9.5-9.5-9.494-9.494-9.5-9.5-9.5,9.5-.066-.066-9.5-9.5-9.5,9.5-9.5,9.5v0l-9.5,9.5v0l-9.5,9.5,9.467,9.467-9.353,9.353-.009-.009-9.5,9.5,9.489,9.485-.057.053,9.5,9.5,9.5,9.5,9.5-9.5-3.167-3.167,3.167,3.163,9.5-9.5-.044-.044,9.436-9.436,9.5,9.5.009-.009,9.494,9.489,2.969-2.965-2.969,2.969,9.5,9.5,9.5-9.5,9.5-9.5Zm-47.569-47.494h0L251,151.787Zm9.423,47.362-2.11-2.11,2.11,2.11,1.78-1.78Z" transform="translate(490.76 365.483)" fill="#fff"/>
        <path id="Trazado_206" data-name="Trazado 206" d="M278.36,174.841h0l9.5-9.5-9.5-9.5-9.5-9.5,0,0-9.5-9.5h0l-9.5-9.5-9.467,9.467-9.353-9.357.009-.009-9.5-9.5-9.485,9.485-.053-.053-9.494,9.494h0l-9.5,9.5,9.5,9.5h0l9.5,9.5.044-.044,9.436,9.436,9.5-9.5-9.5-9.5-.044.044-9.436-9.441,9.472-9.472,9.41,9.41,9.467-9.467,9.472,9.472-9.454,9.454,9.5,9.5,9.454-9.454.026.026v0l9.5,9.5-9.5,9.5,9.5,9.5-.07.066L259.3,193.9l-9.414-9.419-9.5,9.5L249.8,203.4l-9.5,9.5,9.5,9.5,9.5-9.5,9.5-9.5,9.494-9.494,9.5-9.5-9.5-9.5ZM249.914,146.3h0l6.661-6.661Zm18.948,19.044h0l2.375-2.374Z" transform="translate(446.606 306.873)" fill="#fff"/>
        <path id="Trazado_207" data-name="Trazado 207" d="M240.315,176.287l-9.5-9.5-9.353,9.348-9.45-9.445,0,0,9.5-9.5-.009-.009L231,147.691l9.445-9.445,9.441,9.445,9.5-9.5-9.5-9.5-9.441,9.441L231,128.691l-9.5,9.5,2.238,2.238-2.238-2.238-9.5,9.5.009.009-9.489,9.489,1.053,1.057-1.053-1.057-9.5,9.5,9.5,9.5v0l9.5,9.5,9.353-9.353v0l-9.348,9.348,9.5,9.5,9.5-9.5-.053-.053Z" transform="translate(446.607 343.45)" fill="#fff"/>
        <path id="Trazado_208" data-name="Trazado 208" d="M232.352,201.284l9.353,9.348,9.5-9.5-9.5-9.5-.053.048-9.348-9.348-9.5,9.5,9.353,9.348-9.45,9.45v0l-9.5-9.5-.009.009-9.494-9.489-9.441-9.445,9.441-9.441-9.5-9.5-9.5,9.5,9.441,9.441-9.441,9.445-9.5,9.5.044.044-9.436,9.436-9.472-9.472,9.41-9.41-9.467-9.467,9.467-9.467,9.454,9.45,9.5-9.5-9.454-9.454.026-.026,9.5-9.5,9.5,9.5,9.5-9.5.066.07,1.784-1.784-1.784,1.784,9.494,9.494-9.414,9.414,9.5,9.5,9.419-9.414,9.5,9.5,9.5-9.5-9.5-9.5-9.5-9.5-9.494-9.494-9.5-9.5-9.5,9.5-.066-.066-9.5-9.5-9.5,9.5-9.5,9.5v0l-9.5,9.5v0l-9.5,9.5,9.467,9.467-9.353,9.353-.009-.009-9.5,9.5,9.489,9.485-.057.053,9.5,9.5h0l9.5,9.5,9.5-9.5-3.168-3.167,3.168,3.163,9.5-9.5-.044-.044,9.436-9.436,9.5,9.5.009-.009,9.494,9.489,2.969-2.965-2.969,2.969,9.5,9.5,9.5-9.5,9.5-9.5ZM184.782,153.79h0l-2.379-2.375Zm9.423,47.362-2.11-2.11,2.11,2.11,1.78-1.78Z" transform="translate(257.151 364.233)" fill="#fff"/>
        <path id="Trazado_209" data-name="Trazado 209" d="M209.761,174.472h0l9.5-9.5-9.5-9.5-9.5-9.5,0,0-9.5-9.5h0l-9.5-9.5-9.467,9.467-9.353-9.357.009-.009-9.5-9.5-9.485,9.485-.053-.053-9.494,9.494h0l-9.5,9.5,9.5,9.5h0l9.5,9.5.044-.044L152.9,174.4l9.5-9.5-9.5-9.5-.044.044L143.42,146l9.471-9.471,9.41,9.41,9.467-9.467,9.472,9.471-9.454,9.454,9.5,9.5,9.454-9.454.026.026v0l9.5,9.5-9.5,9.5,9.5,9.5-.07.066-9.494,9.494-9.414-9.419-9.5,9.5,9.414,9.414-9.5,9.5,9.5,9.5,9.5-9.5,9.5-9.5,9.494-9.494,9.5-9.5-9.5-9.5ZM181.315,145.93h0l6.661-6.661Zm18.947,19.044h0l2.375-2.375Z" transform="translate(213.001 305.617)" fill="#fff"/>
        <path id="Trazado_210" data-name="Trazado 210" d="M171.716,175.918l-9.5-9.5-9.353,9.348-9.445-9.445v0l9.5-9.5-.009-.009,9.489-9.489,9.445-9.445,9.441,9.445,9.5-9.5-9.5-9.5-9.441,9.441-9.445-9.441-9.5,9.5,2.238,2.238L152.9,137.82l-9.5,9.5.009.009-9.489,9.489,1.053,1.057-1.053-1.057-9.5,9.5,9.5,9.5v0l9.5,9.5,9.353-9.353v0l-9.348,9.348,9.5,9.5,9.5-9.5-.053-.053Z" transform="translate(213 342.195)" fill="#fff"/>
        <path id="Trazado_211" data-name="Trazado 211" d="M238.148,195.268l1.78-1.784-9.5-9.5-.044.044-9.436-9.441-2.234,2.238,2.234-2.233-8.943-8.943,8.943,8.938,9.5-9.5-.009-.009,9.489-9.489-1.185-1.189,1.189,1.189,9.5-9.5-9.5-9.5-9.5-9.5-9.353,9.348,9.348-9.348-9.5-9.5-9.5,9.5.053.053-9.348,9.348,9.5,9.5,9.353-9.353,9.45,9.45h0l-9.5,9.5.009.009-9.489,9.489-9.445,9.441-9.441-9.441-9.5,9.5,9.5,9.5,9.441-9.441,9.445,9.441,9.5,9.5.044-.044,9.436,9.441-9.472,9.472-9.41-9.41-9.467,9.467-9.467-9.472,9.45-9.454-9.5-9.5-9.454,9.454-.026-.026v0l-9.5-9.5,9.5-9.5-9.5-9.5.07-.066-.634-.634.634.634,9.494-9.494,9.414,9.419,9.5-9.5-9.414-9.414,9.5-9.5-9.5-9.5-9.5,9.5-9.5,9.5-9.494,9.494-9.5,9.5,9.5,9.5-.066.071-9.5,9.5,9.5,9.5,9.5,9.5,0,0,9.5,9.5,9.5,9.5,9.467-9.467L211.4,221.9l-.009.009,9.5,9.5,9.485-9.485.053.053,9.494-9.494h0l9.5-9.5-9.5-9.5Zm-45.582-49.393h0l-.551-.551Zm-18.978,38.142h0l-3.167,3.167Z" transform="translate(315.731 305.654)" fill="#fff"/>
        <path id="Trazado_212" data-name="Trazado 212" d="M163.638,201.457l9.353,9.348,9.5-9.5-9.5-9.5-.053.048-9.348-9.348-9.5,9.5,9.353,9.348-9.45,9.449v0l-9.5-9.5-.009.009-9.494-9.489-9.441-9.445,9.441-9.441-9.5-9.5-9.5,9.5,9.441,9.441-9.441,9.445-9.5,9.5.044.044L97.1,210.8l-9.472-9.472,9.41-9.41-9.467-9.467,9.467-9.467,9.454,9.45,9.5-9.5-9.454-9.454.026-.026,9.5-9.5,9.5,9.5,9.5-9.5.066.071,1.784-1.784-1.784,1.784,9.494,9.494-9.414,9.414,9.5,9.5,9.419-9.414,9.5,9.5,9.5-9.5-9.5-9.5-9.5-9.5-9.494-9.494-9.5-9.5-9.5,9.5-.066-.066-9.5-9.5-9.5,9.5-9.5,9.5v0l-9.5,9.5v0l-9.5,9.5,9.467,9.467-9.353,9.353-.009-.009-9.5,9.5,9.489,9.485-.057.053,9.5,9.5h0l9.5,9.5,9.5-9.5-3.167-3.168L106.6,220.3l9.5-9.5-.044-.044,9.436-9.436,9.5,9.5.009-.009,9.494,9.489,2.969-2.965-2.969,2.969,9.5,9.5,9.5-9.5,9.5-9.5Zm-47.569-47.494h0l-2.379-2.374Zm9.423,47.362-2.11-2.11,2.11,2.11,1.78-1.78Z" transform="translate(23.155 364.805)" fill="#fff"/>
        <path id="Trazado_213" data-name="Trazado 213" d="M141.046,174.641h0l9.5-9.5-9.5-9.5-9.5-9.5,0,0-9.5-9.5h0l-9.5-9.5-9.467,9.467-9.353-9.357.009-.009-9.5-9.5-9.485,9.485-.053-.053-9.494,9.494h0l-9.5,9.5,9.5,9.5h0l9.5,9.5.044-.044,9.436,9.436,9.5-9.5-9.5-9.5-.044.044-9.436-9.441,9.472-9.472,9.41,9.41,9.467-9.467,9.472,9.471-9.454,9.454,9.5,9.5,9.454-9.454.026.026v0l9.5,9.5-9.5,9.5,9.5,9.5-.07.066-9.494,9.494-9.414-9.419-9.5,9.5,9.414,9.414-9.5,9.5,9.5,9.5,9.5-9.5,9.5-9.5,9.494-9.494,9.5-9.5-9.5-9.5ZM112.6,146.1h0l6.661-6.661Zm18.948,19.044h0l2.375-2.374Z" transform="translate(-20.999 306.192)" fill="#fff"/>
        <path id="Trazado_214" data-name="Trazado 214" d="M103,176.087l-9.5-9.5-9.353,9.348-9.445-9.445v0l9.5-9.5-.009-.009,9.489-9.489,9.445-9.445,9.441,9.445,9.5-9.5-9.5-9.5-9.441,9.441-9.445-9.441-9.5,9.5,2.238,2.238-2.238-2.238-9.5,9.5.009.009-9.489,9.489,1.053,1.057-1.053-1.057-9.5,9.5,9.5,9.5v0l9.5,9.5,9.353-9.353v0l-9.348,9.348,9.5,9.5,9.5-9.5-.053-.053Z" transform="translate(-20.999 342.77)" fill="#fff"/>
        <path id="Trazado_215" data-name="Trazado 215" d="M169.433,195.437l1.78-1.784-9.5-9.5-.044.044-9.436-9.441L150,177l2.233-2.234-8.943-8.943,8.943,8.939,9.5-9.5-.009-.009,9.489-9.489-1.185-1.189,1.189,1.189,9.5-9.5-9.5-9.5-9.5-9.5-9.353,9.348,9.348-9.348-9.5-9.5-9.5,9.5.053.053-9.348,9.348,9.5,9.5,9.353-9.353,9.45,9.45h0l-9.5,9.5.009.009-9.489,9.489-9.445,9.441-9.441-9.441-9.5,9.5,9.5,9.5,9.441-9.441,9.445,9.441,9.5,9.5.044-.044,9.436,9.441-9.472,9.472-9.41-9.41-9.467,9.467-9.467-9.472,9.45-9.454-9.5-9.5-9.454,9.454-.026-.026v0l-9.5-9.5,9.5-9.5-9.5-9.5.07-.066-.634-.634.634.634,9.494-9.494,9.414,9.419,9.5-9.5-9.414-9.414,9.5-9.5-9.5-9.5-9.5,9.5-9.5,9.5-9.494,9.494-9.5,9.5,9.5,9.5-.066.07-9.5,9.5,9.5,9.5,9.5,9.5,0,0,9.5,9.5,9.5,9.5,9.467-9.467,9.353,9.357-.009.009,9.5,9.5,9.485-9.485.053.053,9.494-9.494h0l9.5-9.5-9.5-9.5Zm-45.582-49.393h0l-.551-.551Zm-18.978,38.142h0l-3.167,3.167Z" transform="translate(81.73 306.23)" fill="#fff"/>
        <path id="Trazado_216" data-name="Trazado 216" d="M310.524,211.648l.009.009,9.5-9.5-9.485-9.485.053-.057-9.494-9.494-9.5-9.5-9.5,9.5-9.5,9.5.044.044-9.441,9.436-9.5-9.5-.009.009-9.489-9.489-9.5-9.5-9.5,9.494-9.5,9.5,9.348,9.353-9.348-9.348-9.5,9.5,9.5,9.5.048-.053,9.353,9.348,9.5-9.5-9.353-9.353,9.45-9.445,9.5,9.5.009-.009,9.489,9.489,9.441,9.441-9.441,9.441,9.5,9.5,9.5-9.5-9.445-9.441,9.445-9.441,9.5-9.5-.044-.044,9.441-9.436,9.472,9.476-9.41,9.405,9.467,9.467-9.472,9.472-9.454-9.454-9.5,9.5,9.454,9.454-.026.026h0l-9.5,9.5-9.5-9.5-9.5,9.5-.066-.066-2.234,2.234,2.234-2.234-9.493-9.494,9.419-9.419-9.5-9.5-9.419,9.414-9.5-9.5-9.5,9.5,9.5,9.5,9.5,9.5h0l9.494,9.494,9.5,9.5,9.5-9.5.07.066h0l9.5,9.5,9.5-9.5,9.5-9.494h0l9.5-9.5,9.5-9.5L301.167,221ZM263.211,202.1,262.1,203.22l1.115-1.119.634.634Zm9.428,47.362h0l1.78,1.784Zm19.044-18.948h0l.511.511Z" transform="translate(491.54 496.467)" fill="#fff"/>
        <path id="Trazado_217" data-name="Trazado 217" d="M266.784,235.7l9.353,9.348,9.5-9.5-9.5-9.5-.053.048-9.348-9.348-9.5,9.5,9.353,9.348-9.449,9.45v0l-9.5-9.5-.009.009-9.494-9.489-9.441-9.445,9.441-9.441-9.5-9.5-9.5,9.5,9.441,9.441-9.441,9.445-9.5,9.5.044.044-9.436,9.436-9.472-9.472,9.41-9.41-9.467-9.467,9.467-9.467,9.454,9.45,9.5-9.5-9.454-9.454.026-.026,9.5-9.5,9.5,9.5,9.5-9.5.066.07,1.784-1.784-1.784,1.784,9.494,9.494-9.414,9.414,9.5,9.5,9.419-9.414,9.5,9.5,9.5-9.5-9.5-9.5-9.5-9.5-9.494-9.494-9.5-9.5-9.5,9.5-.066-.066-9.5-9.5-9.5,9.5-9.5,9.5v0l-9.5,9.5v0l-9.5,9.5,9.467,9.467-9.353,9.353-.009-.009-9.5,9.5L181.306,245l-.057.053,9.5,9.5,9.5,9.5,9.5-9.5-3.167-3.168,3.167,3.163,9.5-9.5L219.2,245l9.436-9.436,9.5,9.5.009-.009,9.494,9.489,2.969-2.965-2.969,2.969,9.5,9.5,9.5-9.5,9.5-9.5ZM219.214,188.2h0l-2.379-2.374Zm9.423,47.362-2.11-2.11,2.11,2.11,1.78-1.78Z" transform="translate(374.405 481.402)" fill="#fff"/>
        <path id="Trazado_218" data-name="Trazado 218" d="M244.192,208.88h0l9.5-9.5-9.5-9.5-9.5-9.5,0,0-9.5-9.5h0l-9.5-9.5-9.467,9.467-9.353-9.357.009-.009-9.5-9.5-9.485,9.485-.053-.053-9.494,9.494h0l-9.5,9.5,9.5,9.5h0l9.5,9.5.044-.044,9.436,9.436,9.5-9.5-9.5-9.5-.044.044-9.436-9.441,9.472-9.472,9.41,9.41,9.467-9.467,9.472,9.472-9.454,9.454,9.5,9.5,9.454-9.454.026.026v0l9.5,9.5-9.5,9.5,9.5,9.5-.07.066-9.494,9.494-9.414-9.419-9.5,9.5,9.414,9.414-9.5,9.5,9.5,9.5,9.5-9.5,9.5-9.5,9.494-9.494,9.5-9.5-9.5-9.5Zm-28.446-28.542h0l6.661-6.661Zm18.947,19.044h0l2.374-2.375Z" transform="translate(330.251 422.789)" fill="#fff"/>
        <path id="Trazado_219" data-name="Trazado 219" d="M206.147,210.326l-9.5-9.5-9.353,9.348-9.45-9.445,0,0,9.5-9.5-.009-.009,9.489-9.489,9.445-9.445,9.441,9.445,9.5-9.5-9.5-9.5-9.441,9.441-9.445-9.441-9.5,9.5,2.238,2.238-2.238-2.238-9.5,9.5.009.009-9.489,9.489,1.053,1.057-1.053-1.057-9.5,9.5,9.5,9.5v0l9.5,9.5,9.353-9.353v0l-9.348,9.348,9.5,9.5,9.5-9.5-.053-.053Z" transform="translate(330.251 459.367)" fill="#fff"/>
        <path id="Trazado_220" data-name="Trazado 220" d="M276.055,177.118l.009.009,9.5-9.5-9.485-9.485.053-.057-9.493-9.494-9.5-9.5-9.5,9.5-9.5,9.5.044.044-9.441,9.436-9.5-9.5-.009.009-9.489-9.489-9.5-9.5-9.5,9.494-9.5,9.5,9.348,9.353-9.348-9.348-9.5,9.5,9.5,9.5.048-.053,9.353,9.348,9.5-9.5-9.353-9.353,9.45-9.445,9.5,9.5.009-.009,9.489,9.489,9.441,9.441-9.441,9.441,9.5,9.5,9.5-9.5-9.445-9.441,9.445-9.441,9.5-9.5-.044-.044,9.441-9.436,9.472,9.476-9.41,9.405,9.467,9.467-9.472,9.472-9.454-9.454-9.5,9.5,9.454,9.454-.026.026h0l-9.5,9.5-9.5-9.5-9.5,9.5-.066-.066-2.233,2.234,2.233-2.234-9.494-9.494,9.419-9.419-9.5-9.5-9.414,9.414-9.5-9.5-9.5,9.5,9.5,9.5,9.5,9.5,9.494,9.494,9.5,9.5,9.5-9.5.07.066h0l9.5,9.5,9.5-9.5,9.5-9.494h0l9.5-9.5,9.5-9.5-9.467-9.463Zm-47.314-9.546-1.115,1.119,1.115-1.119.634.634Zm9.428,47.362h0l1.78,1.784Zm19.044-18.947h0l.511.511Z" transform="translate(374.16 378.88)" fill="#fff"/>
        <path id="Trazado_221" data-name="Trazado 221" d="M272.579,229.676l1.78-1.784-9.5-9.5-.044.044L255.38,209l-2.238,2.238L255.38,209l-8.943-8.943L255.38,209l9.5-9.5-.009-.009L274.359,190l-1.185-1.189L274.363,190l9.5-9.5-9.5-9.5-9.5-9.5-9.353,9.348,9.348-9.348-9.5-9.5-9.5,9.5.053.053-9.348,9.348,9.5,9.5,9.353-9.353,9.449,9.449h0l-9.5,9.5.009.009-9.489,9.489-9.445,9.441L227,199.5l-9.5,9.5,9.5,9.5,9.441-9.441,9.445,9.441,9.5,9.5.044-.044,9.436,9.441-9.471,9.472-9.41-9.41-9.467,9.467-9.467-9.472L236.495,228l-9.5-9.5-9.454,9.454-.026-.026v0l-9.5-9.5,9.5-9.5-9.5-9.5.07-.066-.634-.634.634.634,9.494-9.494L227,199.283l9.5-9.5-9.414-9.414,9.5-9.5-9.5-9.5-9.5,9.5-9.5,9.5-9.494,9.494-9.5,9.5,9.5,9.5-.066.07-9.5,9.5,9.5,9.5,9.5,9.5,0,0,9.5,9.5,9.5,9.5,9.467-9.467,9.353,9.357-.009.009,9.5,9.5,9.485-9.485.053.053,9.494-9.494h0l9.5-9.5-9.5-9.5ZM227,180.282h0l-.551-.551Zm-18.978,38.142h0l-3.167,3.167Z" transform="translate(432.981 422.826)" fill="#fff"/>
        <path id="Trazado_222" data-name="Trazado 222" d="M241.809,211.817l.009.009,9.5-9.5-9.485-9.485.053-.057-9.494-9.494-9.5-9.5-9.5,9.5-9.5,9.5.044.044L194.5,202.27l-9.5-9.5-.009.009-9.489-9.489-9.5-9.5-9.5,9.494-9.5,9.5,9.348,9.353L147,192.79l-9.5,9.5,9.5,9.5.048-.053,9.353,9.348,9.5-9.5-9.353-9.353L166,192.79l9.5,9.5.009-.009L185,211.773l9.441,9.441L185,230.654l9.5,9.5,9.5-9.5-9.445-9.441L204,211.773l9.5-9.5-.044-.044,9.441-9.436,9.472,9.476-9.41,9.405,9.467,9.467-9.472,9.472-9.454-9.454-9.5,9.5,9.454,9.454-.027.026h0l-9.5,9.5-9.5-9.5-9.5,9.5-.066-.066-2.233,2.234,2.233-2.234-9.494-9.494,9.419-9.419-9.5-9.5-9.419,9.414-9.5-9.5-9.5,9.5,9.5,9.5,9.5,9.5h0l9.494,9.494,9.5,9.5,9.5-9.5.071.066h0l9.5,9.5,9.5-9.5,9.5-9.494h0l9.5-9.5,9.5-9.5-9.467-9.463ZM194.5,202.27l-1.115,1.119,1.115-1.119.634.634Zm9.428,47.362h0l1.78,1.784Zm19.044-18.947h0l.511.511Z" transform="translate(257.54 497.043)" fill="#fff"/>
        <path id="Trazado_223" data-name="Trazado 223" d="M198.069,235.861l9.353,9.348,9.5-9.5-9.5-9.5-.053.048-9.348-9.348-9.5,9.5,9.353,9.348-9.45,9.45v0l-9.5-9.5-.009.009-9.494-9.489-9.441-9.445,9.441-9.441-9.5-9.5-9.5,9.5,9.441,9.441-9.441,9.445-9.5,9.5.044.044-9.436,9.436-9.472-9.472,9.41-9.41L122,216.861l9.467-9.467,9.454,9.449,9.5-9.5-9.454-9.454.026-.026,9.5-9.5,9.5,9.5,9.5-9.5.066.071,1.784-1.784-1.784,1.784,9.494,9.494-9.414,9.414,9.5,9.5,9.419-9.414,9.5,9.5,9.5-9.5-9.5-9.5-9.5-9.5-9.494-9.494-9.5-9.5-9.5,9.5-.066-.066-9.5-9.5-9.5,9.5-9.5,9.5v0l-9.5,9.5v0l-9.5,9.5,9.467,9.467-9.353,9.353-.009-.009-9.5,9.5,9.489,9.485-.057.053,9.5,9.5h0l9.5,9.5,9.5-9.5-3.168-3.167,3.168,3.163,9.5-9.5-.044-.044,9.436-9.436,9.5,9.5.009-.009,9.494,9.489,2.969-2.965-2.969,2.969,9.5,9.5,9.5-9.5,9.5-9.5ZM150.5,188.367h0l-2.379-2.374Zm9.423,47.362-2.11-2.11,2.11,2.11,1.78-1.78Z" transform="translate(140.405 481.981)" fill="#fff"/>
        <path id="Trazado_224" data-name="Trazado 224" d="M175.477,209.049h0l9.5-9.5-9.5-9.5-9.5-9.5,0,0-9.5-9.5h0l-9.5-9.5-9.467,9.467-9.353-9.357.009-.009-9.5-9.5-9.485,9.485-.053-.053-9.494,9.494h0l-9.5,9.5,9.5,9.5h0l9.5,9.5.044-.044,9.436,9.436,9.5-9.5-9.5-9.5-.044.044-9.436-9.441,9.472-9.471,9.41,9.41,9.467-9.467,9.472,9.471-9.454,9.454,9.5,9.5,9.454-9.454.026.026v0l9.5,9.5-9.5,9.5,9.5,9.5-.07.066-9.494,9.494L147,218.692l-9.5,9.5,9.414,9.414-9.5,9.5,9.5,9.5,9.5-9.5,9.5-9.5,9.494-9.494,9.5-9.5-9.5-9.5Zm-28.445-28.542h0l6.661-6.661Zm18.947,19.044h0l2.375-2.375Z" transform="translate(96.251 423.364)" fill="#fff"/>
        <path id="Trazado_225" data-name="Trazado 225" d="M137.432,210.495l-9.5-9.5-9.353,9.348-9.445-9.445v0l9.5-9.5-.009-.009,9.489-9.489,9.445-9.445L147,181.9l9.5-9.5-9.5-9.5-9.441,9.441-9.445-9.441-9.5,9.5,2.238,2.238-2.238-2.238-9.5,9.5.009.009L99.639,191.4l1.053,1.057L99.639,191.4l-9.5,9.5,9.5,9.5v0l9.5,9.5,9.353-9.353v0l-9.348,9.348,9.5,9.5,9.5-9.5-.053-.053Z" transform="translate(96.252 459.942)" fill="#fff"/>
        <path id="Trazado_226" data-name="Trazado 226" d="M207.34,177.287l.009.009,9.5-9.5-9.485-9.485.053-.057-9.494-9.494-9.5-9.5-9.5,9.5-9.5,9.5.044.044-9.441,9.436-9.5-9.5-.009.009-9.489-9.489-9.5-9.5-9.5,9.494-9.5,9.5,9.348,9.353-9.348-9.348-9.5,9.5,9.5,9.5.048-.053,9.353,9.348,9.5-9.5-9.353-9.353,9.45-9.445,9.5,9.5.009-.009,9.489,9.489,9.441,9.441-9.441,9.441,9.5,9.5,9.5-9.5-9.445-9.441,9.445-9.441,9.5-9.5-.044-.044,9.436-9.436,9.476,9.476-9.41,9.405,9.467,9.467-9.472,9.472-9.454-9.454-9.5,9.5,9.454,9.454-.026.026h0l-9.5,9.5-9.5-9.5-9.5,9.5-.066-.066-2.234,2.233,2.234-2.233-9.494-9.494,9.419-9.419-9.5-9.5-9.419,9.414-9.5-9.5-9.5,9.5,9.5,9.5,9.5,9.5h0l9.494,9.494,9.5,9.5,9.5-9.5.071.066h0l9.5,9.5,9.5-9.5,9.5-9.494h0l9.5-9.5,9.5-9.5-9.467-9.463Zm-47.314-9.546-1.115,1.119,1.115-1.119.634.634Zm9.427,47.362h0l1.78,1.784ZM188.5,196.155h0l.511.511Z" transform="translate(140.16 379.455)" fill="#fff"/>
        <path id="Trazado_227" data-name="Trazado 227" d="M203.864,229.844l1.78-1.784-9.494-9.5-.048.044-9.436-9.441-2.238,2.238,2.238-2.238-8.943-8.939,8.943,8.939,9.5-9.5-.009-.009,9.489-9.489-1.185-1.189,1.189,1.189,9.5-9.5-9.5-9.5-9.5-9.5-9.353,9.348,9.353-9.348-9.5-9.5-9.5,9.5.053.053-9.348,9.348,9.5,9.5,9.353-9.353,9.45,9.449h0l-9.5,9.5.009.009-9.489,9.489-9.445,9.441-9.441-9.441-9.5,9.5,9.5,9.5,9.441-9.441,9.445,9.441,9.5,9.5.044-.044,9.441,9.441-9.476,9.472-9.41-9.41-9.467,9.467-9.467-9.472,9.45-9.454-9.5-9.5-9.454,9.454-.026-.026v0l-9.494-9.5,9.494-9.5-9.494-9.5.066-.066-.634-.634.634.634,9.494-9.494,9.414,9.419,9.5-9.5-9.414-9.414,9.5-9.5-9.5-9.5-9.5,9.5-9.494,9.5-9.5,9.494-9.5,9.5,9.5,9.5-.066.07-9.5,9.5,9.5,9.5,9.5,9.5-.009,0,9.5,9.5,9.5,9.5,9.467-9.467,9.357,9.357-.013.009,9.5,9.5L196.1,256.5l.053.053,9.494-9.494h0l9.5-9.5-9.5-9.5ZM158.282,180.45h0l-.551-.551Zm-18.974,38.142h0l-3.172,3.167Z" transform="translate(198.981 423.398)" fill="#fff"/>
        <path id="Trazado_228" data-name="Trazado 228" d="M173.21,211.449l.009.009,9.5-9.5-9.485-9.485.053-.057-9.494-9.494-9.5-9.5-9.5,9.5-9.5,9.5.044.044L125.9,201.9l-9.5-9.5-.009.009-9.489-9.489-9.5-9.5-9.5,9.494-9.5,9.5,9.348,9.353L78.4,192.422l-9.5,9.5,9.5,9.5.048-.053,9.353,9.348,9.5-9.5-9.353-9.353,9.45-9.445,9.5,9.5.009-.009L116.4,211.4l9.441,9.441-9.441,9.441,9.5,9.5,9.5-9.5-9.445-9.441L135.4,211.4l9.5-9.5-.044-.044,9.436-9.436,9.476,9.476-9.41,9.405,9.467,9.467-9.472,9.472-9.454-9.454-9.5,9.5,9.454,9.454-.026.026h0l-9.5,9.5-9.5-9.5-9.5,9.5-.066-.066-2.234,2.233,2.234-2.233-9.494-9.494,9.419-9.419-9.5-9.5L97.262,230.2l-9.5-9.5-9.5,9.5,9.5,9.5,9.5,9.5h0l9.494,9.494,9.5,9.5,9.5-9.5.07.066h0l9.5,9.5,9.5-9.5,9.5-9.494h0l9.5-9.5,9.5-9.5-9.467-9.463ZM125.9,201.9l-1.115,1.119L125.9,201.9l.634.634Zm9.428,47.362h0l1.78,1.784Zm19.044-18.948h0l.511.511Z" transform="translate(23.934 495.79)" fill="#fff"/>
        <path id="Trazado_229" data-name="Trazado 229" d="M129.47,235.5l9.353,9.348,9.5-9.5-9.5-9.5-.053.048-9.348-9.348-9.5,9.5,9.353,9.348-9.45,9.45v0l-9.5-9.5-.009.009-9.494-9.489-9.441-9.445,9.441-9.441-9.5-9.5-9.5,9.5,9.441,9.441-9.441,9.445-9.5,9.5.044.044-9.436,9.436-9.472-9.472,9.41-9.41L53.4,216.5l9.467-9.467,9.454,9.45,9.5-9.5-9.454-9.454.026-.026,9.5-9.5,9.5,9.5,9.5-9.5.066.07,1.784-1.784-1.784,1.784,9.494,9.494-9.414,9.414,9.5,9.5,9.419-9.414,9.5,9.5,9.5-9.5-9.5-9.5-9.5-9.5-9.494-9.494-9.5-9.5-9.5,9.5L91.4,178.5,81.9,169l-9.5,9.5L62.9,188v0l-9.5,9.5v0L43.9,207l9.467,9.467-9.353,9.353-.009-.009-9.5,9.5,9.489,9.485-.057.053,9.5,9.5h0l9.5,9.5,9.5-9.5-3.167-3.167,3.167,3.163,9.5-9.5-.044-.044,9.436-9.436,9.5,9.5.009-.009,9.494,9.489,2.969-2.965-2.969,2.969,9.5,9.5,9.5-9.5,9.5-9.5ZM81.9,188h0l-2.379-2.375Zm9.423,47.362-2.11-2.11,2.11,2.11,1.78-1.78Z" transform="translate(-93.2 480.721)" fill="#fff"/>
        <path id="Trazado_230" data-name="Trazado 230" d="M138.741,176.919l.009.009,9.5-9.5-9.485-9.485.053-.057-9.494-9.494-9.5-9.5-9.5,9.5-9.5,9.5.044.044-9.441,9.436-9.5-9.5-.009.009-9.489-9.489-9.5-9.5-9.5,9.494-9.5,9.5,9.348,9.353-9.348-9.348-9.5,9.5,9.5,9.5.048-.053,9.353,9.348,9.5-9.5-9.353-9.353,9.45-9.445,9.5,9.5.009-.009,9.489,9.489,9.441,9.441-9.441,9.441,9.5,9.5,9.5-9.5-9.445-9.441,9.445-9.441,9.5-9.5-.044-.044,9.441-9.436,9.472,9.476-9.41,9.406,9.467,9.467-9.472,9.471-9.454-9.454-9.5,9.5,9.454,9.454-.026.026h0l-9.5,9.5-9.5-9.5-9.5,9.5-.066-.066L79.555,216.9l2.234-2.234L72.3,205.175l9.419-9.419-9.5-9.5-9.419,9.414-9.5-9.5-9.5,9.5,9.5,9.5,9.5,9.5h0l9.494,9.494,9.5,9.5,9.5-9.5.07.066h0l9.5,9.5,9.5-9.5,9.5-9.494h0l9.5-9.5,9.5-9.5-9.467-9.463Zm-47.314-9.546-1.115,1.119,1.115-1.119.634.634Zm9.427,47.362h0l1.78,1.784ZM119.9,195.787h0l.511.511Z" transform="translate(-93.445 378.202)" fill="#fff"/>
        <path id="Trazado_231" data-name="Trazado 231" d="M135.265,229.476l1.78-1.784-9.5-9.5-.044.044-9.436-9.441-2.234,2.238,2.234-2.234-8.943-8.943,8.943,8.939,9.5-9.5-.009-.009,9.489-9.489-1.185-1.189,1.189,1.189,9.5-9.5-9.5-9.5-9.5-9.5-9.353,9.348,9.348-9.348-9.5-9.5-9.5,9.5.053.053L99.251,170.7l9.5,9.5,9.353-9.353,9.45,9.45h0l-9.5,9.5.009.009-9.489,9.489-9.445,9.441L89.683,199.3l-9.5,9.5,9.5,9.5,9.441-9.441,9.445,9.441,9.5,9.5.044-.044,9.436,9.441-9.472,9.472-9.41-9.41L99.2,246.723l-9.467-9.472,9.45-9.454-9.5-9.5-9.454,9.454-.026-.026v0l-9.5-9.5,9.5-9.5-9.5-9.5.071-.066-.634-.634.634.634,9.494-9.494,9.414,9.419,9.5-9.5-9.414-9.414,9.5-9.5-9.5-9.5-9.5,9.5-9.5,9.5-9.494,9.494-9.5,9.5,9.5,9.5-.066.07-9.5,9.5,9.5,9.5,9.5,9.5,0,0,9.5,9.5,9.5,9.5,9.467-9.467,9.353,9.357-.009.009,9.5,9.5,9.485-9.485.053.053,9.494-9.494h0l9.5-9.5-9.5-9.5ZM89.683,180.082h0l-.551-.551ZM70.7,218.224h0l-3.167,3.167Z" transform="translate(-34.624 422.145)" fill="#fff"/>
      </g>
    </g>
  </g>
</svg>
